<?xml version="1.0" standalone="no"?>
<!DOCTYPE svg PUBLIC "-//W3C//DTD SVG 20010904//EN"
 "http://www.w3.org/TR/2001/REC-SVG-20010904/DTD/svg10.dtd">
<svg version="1.0" xmlns="http://www.w3.org/2000/svg"
 width="400.000000pt" height="400.000000pt" viewBox="0 0 400.000000 400.000000"
 preserveAspectRatio="xMidYMid meet">

<g transform="translate(0.000000,400.000000) scale(0.100000,-0.100000)"
fill="#000000" stroke="none">
<path d="M3383 3988 c-22 -30 -57 -106 -62 -138 -4 -20 -13 -36 -21 -36 -8 -1
-19 -3 -25 -4 -5 -1 -13 -2 -18 -1 -11 2 -47 -61 -40 -72 3 -5 1 -12 -5 -16
-7 -4 -8 -12 -2 -21 8 -13 10 -12 10 3 0 15 7 18 33 16 55 -4 122 25 95 42
-19 13 -28 11 -28 -6 0 -8 -7 -15 -15 -15 -19 0 -20 26 0 34 8 3 12 11 10 19
-4 8 8 20 30 30 30 15 35 15 35 2 0 -9 -7 -18 -15 -21 -8 -4 -15 -12 -15 -20
0 -23 16 -16 31 14 8 15 18 30 24 34 6 4 5 19 -2 40 -6 18 -9 54 -8 81 4 50 3
54 -12 35z m-113 -227 c0 -11 -31 -24 -39 -16 -3 3 1 10 9 15 19 12 30 12 30
1z"/>
<path d="M3429 3993 c0 -5 -2 -28 -4 -53 -3 -30 -2 -39 4 -25 17 39 23 85 12
85 -6 0 -11 -3 -12 -7z"/>
<path d="M3550 3981 c0 -11 -9 -22 -19 -26 -15 -5 -33 -29 -32 -42 0 -2 -6
-18 -15 -38 -8 -19 -11 -35 -7 -35 4 0 2 -5 -5 -12 -15 -15 -16 -28 -2 -28 18
0 53 38 45 49 -3 7 -3 11 2 10 4 -1 15 -1 23 0 12 1 11 4 -3 12 -16 9 -16 11
-1 26 13 13 17 14 24 3 5 -8 9 9 11 44 3 40 0 56 -8 56 -7 0 -13 -9 -13 -19z"/>
<path d="M3596 3986 c3 -8 13 -17 22 -19 15 -4 14 -5 -1 -6 -16 -1 -18 -9 -16
-58 3 -50 0 -57 -19 -64 -12 -5 -22 -13 -22 -20 0 -6 7 -9 15 -5 8 3 15 1 15
-4 0 -6 -4 -10 -9 -10 -5 0 -11 -9 -14 -20 -6 -24 15 -27 33 -5 6 8 15 14 18
13 42 -10 162 67 162 104 0 14 5 18 15 14 8 -3 15 -1 15 4 0 5 8 11 18 13 16
4 16 5 0 6 -10 0 -18 7 -18 15 0 16 -40 29 -64 21 -53 -17 -51 -16 -36 -25 12
-8 10 -10 -7 -10 -14 0 -23 -6 -23 -15 0 -9 9 -15 23 -15 29 0 51 -15 43 -29
-11 -17 -29 -13 -22 4 6 16 -9 21 -19 5 -3 -5 -12 -7 -20 -4 -7 3 -18 -4 -25
-15 -9 -17 -8 -22 5 -27 12 -5 13 -9 4 -20 -23 -27 -38 -16 -32 23 4 26 3 34
-5 29 -20 -12 -13 14 12 47 14 18 28 44 31 60 7 26 6 27 -39 27 -35 0 -44 -3
-40 -14z m154 -66 c0 -5 -5 -10 -11 -10 -5 0 -7 5 -4 10 3 6 8 10 11 10 2 0 4
-4 4 -10z"/>
<path d="M3727 3989 c8 -8 16 -8 30 0 16 9 14 10 -11 11 -22 0 -27 -3 -19 -11z"/>
<path d="M3780 3989 c0 -6 6 -9 14 -6 8 3 16 1 19 -6 2 -6 6 -4 10 6 5 13 1
17 -18 17 -14 0 -25 -5 -25 -11z"/>
<path d="M3926 3971 c4 -19 2 -37 -6 -46 -8 -10 -9 -15 -2 -15 25 0 38 79 15
87 -9 3 -11 -4 -7 -26z"/>
<path d="M3138 3973 c7 -3 16 -2 19 1 4 3 -2 6 -13 5 -11 0 -14 -3 -6 -6z"/>
<path d="M3185 3970 c3 -5 8 -10 11 -10 2 0 4 5 4 10 0 6 -5 10 -11 10 -5 0
-7 -4 -4 -10z"/>
<path d="M2975 3952 c-12 -9 -24 -25 -28 -34 -3 -10 -16 -18 -29 -18 -17 0
-19 -3 -10 -12 14 -14 144 -19 164 -7 9 6 6 9 -12 9 -18 0 -29 8 -38 30 -8 16
-11 34 -7 40 10 16 -18 11 -40 -8z"/>
<path d="M3281 3905 c-12 -21 -28 -35 -40 -35 -11 0 -22 -9 -26 -20 -8 -26
-21 -25 -30 3 -6 20 -8 19 -15 -13 -5 -19 -12 -46 -16 -59 -5 -16 -4 -22 4
-17 6 3 13 19 17 36 4 18 11 27 20 24 7 -3 16 -1 19 4 3 6 14 8 24 5 26 -6 62
30 69 71 7 45 1 45 -26 1z"/>
<path d="M2705 3901 c-19 -8 -19 -8 0 -18 24 -12 45 -6 45 13 0 15 -14 17 -45
5z"/>
<path d="M2838 3883 c7 -3 16 -2 19 1 4 3 -2 6 -13 5 -11 0 -14 -3 -6 -6z"/>
<path d="M3981 3876 c-8 -10 -27 -24 -43 -32 -24 -13 -27 -12 -22 1 8 20 -5
19 -27 -1 -10 -9 -37 -17 -59 -18 -38 -1 -44 -6 -41 -32 1 -6 -16 -18 -36 -27
-35 -14 -36 -15 -11 -16 14 -1 28 -6 30 -12 2 -6 22 -12 45 -12 44 -1 87 25
96 59 3 10 3 -1 0 -26 -8 -49 -7 -100 2 -108 3 -3 13 2 23 11 26 24 39 21 17
-3 -9 -10 -15 -26 -12 -35 4 -9 1 -15 -7 -15 -8 0 -16 6 -19 13 -3 9 -7 9 -20
-2 -25 -20 -11 -31 39 -31 47 0 55 -8 25 -27 -13 -8 -17 -19 -14 -37 3 -14 9
-26 14 -26 17 0 22 32 8 42 -10 7 -8 8 9 3 20 -6 22 -3 22 28 0 20 -6 37 -12
40 -10 4 -10 7 0 18 6 7 12 28 12 47 0 30 -2 33 -16 22 -12 -11 -15 -11 -12 1
2 8 9 19 16 24 9 7 12 34 10 89 -3 70 -5 77 -17 62z m-44 -88 c-3 -8 -6 -5 -6
6 -1 11 2 17 5 13 3 -3 4 -12 1 -19z m13 -58 c0 -5 -4 -10 -10 -10 -5 0 -10 5
-10 10 0 6 5 10 10 10 6 0 10 -4 10 -10z"/>
<path d="M2701 3854 c0 -11 3 -14 6 -6 3 7 2 16 -1 19 -3 4 -6 -2 -5 -13z"/>
<path d="M3128 3858 c9 -9 15 -9 24 0 9 9 7 12 -12 12 -19 0 -21 -3 -12 -12z"/>
<path d="M2728 3853 c7 -3 16 -2 19 1 4 3 -2 6 -13 5 -11 0 -14 -3 -6 -6z"/>
<path d="M3076 3825 c-3 -9 0 -15 9 -15 16 0 20 16 6 24 -5 3 -11 -1 -15 -9z"/>
<path d="M3000 3820 c0 -5 4 -10 9 -10 6 0 13 5 16 10 3 6 -1 10 -9 10 -9 0
-16 -4 -16 -10z"/>
<path d="M2786 3808 c5 -8 2 -9 -9 -5 -10 3 -17 2 -17 -3 0 -6 9 -10 20 -10
11 0 20 7 20 15 0 8 -5 15 -11 15 -5 0 -7 -5 -3 -12z"/>
<path d="M2667 3773 c-3 -3 -3 -12 0 -21 4 -10 2 -13 -5 -8 -8 4 -12 1 -12
-10 0 -15 4 -14 25 6 14 13 25 24 25 26 0 5 -29 12 -33 7z"/>
<path d="M3431 3759 c-13 -11 -21 -22 -18 -25 3 -3 16 3 28 15 29 27 21 35
-10 10z"/>
<path d="M3051 3754 c6 -8 9 -18 5 -21 -4 -4 -11 -1 -15 6 -6 10 -13 4 -25
-19 -19 -40 -19 -41 -4 -37 13 2 68 65 68 76 0 4 -9 7 -21 8 -17 2 -18 -1 -8
-13z"/>
<path d="M3104 3757 c-8 -21 2 -35 16 -21 5 5 6 15 0 24 -8 12 -10 12 -16 -3z"/>
<path d="M2890 3746 c0 -8 5 -18 10 -21 6 -3 10 1 10 9 0 8 -4 18 -10 21 -5 3
-10 -1 -10 -9z"/>
<path d="M2923 3735 c1 -17 6 -29 10 -28 19 6 32 20 33 36 2 14 -1 15 -13 5
-12 -9 -16 -9 -23 3 -6 9 -8 5 -7 -16z"/>
<path d="M3496 3744 c-24 -23 -19 -26 14 -9 17 9 30 18 30 20 0 11 -30 4 -44
-11z"/>
<path d="M3135 3739 c-4 -6 -4 -13 -1 -16 3 -3 1 -14 -5 -24 -5 -11 -6 -19 -1
-19 15 0 32 24 32 47 0 24 -14 31 -25 12z"/>
<path d="M3560 3730 c-13 -8 -12 -10 3 -10 9 0 17 5 17 10 0 12 -1 12 -20 0z"/>
<path d="M2580 3715 c0 -8 2 -15 4 -15 2 0 6 7 10 15 3 8 1 15 -4 15 -6 0 -10
-7 -10 -15z"/>
<path d="M3849 3687 c-78 -68 -80 -70 -103 -59 -11 6 -16 11 -9 11 7 1 10 7 7
15 -4 9 4 15 25 18 16 2 28 1 25 -4 -3 -4 -1 -8 5 -8 17 0 23 20 11 35 -15 18
-41 20 -37 3 1 -9 -10 -12 -35 -10 -21 2 -38 -1 -38 -6 0 -19 -83 -113 -90
-103 -4 7 -15 2 -30 -14 -22 -23 -22 -25 -4 -25 10 0 26 4 34 9 8 6 19 7 24 3
18 -10 57 -11 83 -1 18 7 30 6 41 -3 13 -11 14 -11 8 1 -7 10 -3 12 13 6 12
-4 21 -2 21 4 0 6 9 11 19 11 11 0 23 5 27 12 5 7 2 9 -7 4 -8 -4 -3 2 11 13
22 19 23 22 8 31 -25 15 -12 48 17 43 20 -4 22 -2 18 21 -3 14 -6 26 -7 26 0
0 -17 -15 -37 -33z"/>
<path d="M2830 3672 c0 -10 -5 -23 -11 -29 -7 -7 -6 -12 5 -16 10 -4 16 -1 16
7 0 7 7 19 15 26 21 17 19 30 -5 30 -13 0 -20 -7 -20 -18z"/>
<path d="M2927 3663 c-14 -34 -25 -45 -57 -61 l-25 -12 28 5 c31 6 36 -9 7
-25 -28 -15 -25 -32 3 -19 16 7 32 32 49 75 24 62 20 93 -5 37z"/>
<path d="M3320 3674 c-14 -7 -25 -20 -25 -28 0 -8 -9 -22 -20 -30 -17 -13 -18
-17 -6 -25 12 -8 10 -11 -11 -16 -16 -4 -29 -16 -32 -31 -5 -19 -13 -24 -36
-24 -37 0 -39 -15 -4 -24 21 -6 24 -9 14 -21 -9 -11 -9 -15 -1 -15 6 0 11 -10
11 -22 1 -22 1 -22 11 -4 8 13 8 20 0 26 -9 5 -4 16 14 39 15 17 30 29 34 26
4 -2 22 9 40 25 18 17 41 30 51 30 24 0 31 12 19 30 -5 9 -9 10 -9 4 0 -7 -7
-15 -16 -18 -14 -5 -15 -4 -4 9 10 12 10 15 -1 15 -8 1 0 7 16 15 l30 13 -29
1 c-28 1 -29 1 -11 21 22 24 4 26 -35 4z"/>
<path d="M3423 3670 c-19 -8 -33 -30 -18 -30 12 0 55 24 55 32 0 10 -8 9 -37
-2z"/>
<path d="M2575 3660 c-3 -5 -2 -10 4 -10 5 0 13 5 16 10 3 6 2 10 -4 10 -5 0
-13 -4 -16 -10z"/>
<path d="M2723 3658 c-19 -25 -23 -50 -10 -63 11 -10 17 -10 32 2 19 13 19 14
-2 19 -18 5 -20 10 -13 30 10 26 8 31 -7 12z"/>
<path d="M2870 3630 c-13 -8 -12 -10 3 -10 9 0 17 5 17 10 0 12 -1 12 -20 0z"/>
<path d="M3020 3629 c0 -5 5 -7 10 -4 6 3 10 8 10 11 0 2 -4 4 -10 4 -5 0 -10
-5 -10 -11z"/>
<path d="M2826 3591 c-4 -7 -5 -15 -2 -18 9 -9 19 4 14 18 -4 11 -6 11 -12 0z"/>
<path d="M3218 3593 c7 -3 16 -2 19 1 4 3 -2 6 -13 5 -11 0 -14 -3 -6 -6z"/>
<path d="M3544 3569 c-19 -22 -19 -22 4 -10 12 6 22 16 22 21 0 15 -5 12 -26
-11z"/>
<path d="M3484 3565 c25 -19 33 -19 33 0 0 10 -10 15 -26 15 -25 -1 -25 -1 -7
-15z"/>
<path d="M3923 3565 c-7 -8 -9 -16 -4 -19 5 -3 12 1 15 10 8 22 4 25 -11 9z"/>
<path d="M3016 3553 c-6 -14 -5 -15 5 -6 7 7 10 15 7 18 -3 3 -9 -2 -12 -12z"/>
<path d="M3344 3555 c-5 -12 -9 -13 -14 -5 -5 8 -10 2 -14 -14 -4 -16 -15 -28
-31 -32 -33 -8 -32 -19 5 -36 36 -15 38 -24 8 -31 -21 -6 -21 -7 -4 -26 17
-19 16 -23 -17 -34 -15 -6 -17 -3 -12 16 5 20 4 20 -17 -6 -20 -22 -26 -25
-37 -15 -8 7 -11 8 -8 2 4 -7 -5 -14 -23 -18 -35 -7 -40 -23 -7 -28 20 -3 22
-8 20 -60 -2 -50 0 -56 15 -51 16 6 15 5 -1 -11 -11 -11 -14 -23 -9 -30 5 -7
0 -20 -14 -34 l-21 -22 2 42 c2 24 1 36 -2 28 -11 -27 -47 -50 -70 -45 -32 7
-28 -7 7 -27 29 -16 30 -16 30 2 0 10 5 22 12 26 8 5 9 -2 5 -24 -6 -31 6 -46
16 -19 2 6 7 10 10 7 3 -3 -7 -20 -23 -37 l-29 -31 23 -4 c18 -4 22 -1 19 12
-2 9 3 23 13 31 15 12 16 12 10 -8 -7 -21 -5 -21 25 -13 34 10 61 -7 36 -22
-6 -4 -14 -2 -18 3 -9 16 -49 -12 -49 -33 0 -10 6 -18 14 -18 8 0 17 -4 21 -9
3 -6 -4 -8 -16 -6 -15 3 -19 0 -16 -10 8 -19 -16 -38 -31 -23 -8 8 -15 8 -27
-2 -20 -17 -19 -31 2 -23 12 5 14 3 8 -8 -6 -11 -5 -12 6 -1 28 26 41 5 13
-22 -8 -9 -20 -14 -25 -11 -5 4 -9 2 -9 -3 0 -5 -9 -12 -19 -15 -11 -3 -22
-17 -26 -35 -5 -26 -11 -31 -37 -30 -16 1 -34 -5 -39 -13 -6 -10 -9 -10 -9 -1
0 6 -9 12 -20 12 -11 0 -20 -6 -20 -14 0 -8 -8 -22 -17 -32 -17 -17 -17 -17 3
-12 23 6 53 -6 42 -17 -3 -3 -16 -6 -29 -7 -44 -1 -66 -17 -61 -44 2 -14 -2
-32 -10 -42 -8 -9 -20 -36 -27 -60 -7 -24 -23 -53 -37 -64 -13 -12 -24 -25
-24 -30 0 -4 -8 -16 -17 -27 -47 -50 -73 -87 -73 -103 0 -10 -7 -21 -15 -24
-8 -4 -12 -10 -9 -16 4 -5 11 -5 19 2 15 12 41 4 49 -16 7 -19 24 -18 29 4 3
10 5 6 6 -11 1 -24 -2 -27 -29 -25 -16 2 -30 -1 -30 -7 -1 -5 -8 -17 -15 -26
-15 -15 -20 -38 -16 -74 1 -17 3 -18 11 -5 9 13 12 12 22 -5 6 -10 25 -32 42
-48 22 -21 25 -26 9 -18 -31 16 -33 15 -44 -19 -10 -27 -21 -34 -56 -33 -23 1
-14 -17 15 -29 15 -6 30 -11 35 -10 4 1 7 -3 7 -8 0 -6 -5 -10 -11 -10 -7 0
-9 -10 -7 -25 5 -23 2 -25 -28 -25 -23 0 -37 6 -44 20 -14 26 -34 26 -27 0 3
-11 1 -18 -4 -14 -5 3 -9 1 -9 -5 0 -5 5 -11 12 -13 7 -3 8 -10 4 -17 -7 -11
-10 -11 -17 0 -5 8 -7 -12 -4 -51 l4 -65 -14 54 c-12 47 -12 58 1 82 19 37 19
55 0 39 -8 -6 -12 -18 -9 -26 3 -8 1 -14 -4 -14 -22 0 -75 251 -55 258 6 2 8
10 5 18 -3 8 0 14 6 14 6 0 11 6 11 14 0 9 7 12 19 9 16 -4 17 -10 10 -41 -4
-20 -7 -37 -6 -39 9 -8 30 22 51 73 19 45 29 58 43 56 16 -2 16 -1 2 7 -17 11
-15 61 2 61 4 0 8 8 7 18 -1 40 14 159 23 183 6 15 9 44 7 65 -3 30 -8 38 -25
39 -12 1 -32 -7 -45 -17 -17 -13 -19 -18 -7 -18 16 0 32 -47 25 -72 -2 -7 -10
-46 -17 -85 -7 -40 -15 -73 -19 -73 -4 0 -11 -29 -15 -65 -3 -36 -11 -68 -17
-71 -8 -5 -9 23 -4 96 3 57 3 101 0 97 -4 -4 -9 -22 -11 -39 -5 -46 -10 -58
-28 -58 -9 0 -15 9 -15 23 -1 22 -1 22 -15 -3 -10 -19 -15 -21 -18 -10 -11 31
-14 111 -6 116 5 3 9 10 9 15 0 6 -4 8 -9 4 -11 -6 -17 10 -32 98 -6 37 -15
69 -20 72 -4 3 -6 12 -2 20 3 8 1 15 -4 15 -5 0 -10 7 -10 15 0 9 6 14 14 11
7 -3 13 0 13 6 0 6 7 20 17 30 13 15 13 18 2 18 -8 0 -21 -9 -28 -19 -11 -15
-18 -17 -32 -8 -9 6 -14 17 -11 25 3 9 1 13 -5 9 -10 -6 -29 37 -25 56 1 4 -6
11 -15 14 -10 4 -23 13 -28 20 -6 8 -26 15 -45 15 -19 0 -47 7 -62 14 -33 17
-41 18 -33 2 4 -7 -1 -4 -9 6 -16 20 -16 20 -16 0 0 -15 -2 -16 -9 -4 -6 8 -7
18 -4 24 3 5 1 6 -5 2 -5 -3 -13 0 -16 6 -3 7 -3 0 0 -17 l5 -30 -21 35 c-11
19 -20 28 -19 20 3 -29 -1 -37 -18 -37 -10 0 -21 5 -25 11 -4 6 -8 0 -8 -14
-1 -22 -2 -23 -11 -7 -6 9 -14 15 -20 12 -5 -4 -9 4 -10 17 l0 23 -10 -23 c-5
-13 -13 -21 -18 -18 -5 3 -12 -2 -15 -11 -6 -15 -10 -14 -29 8 -12 14 -20 20
-17 14 8 -15 6 -50 -3 -47 -4 1 -13 2 -19 2 -9 0 -9 3 -3 8 6 4 8 20 4 37 -5
25 -14 18 -10 -7 0 -5 -4 -8 -10 -8 -6 0 -8 -7 -5 -16 5 -13 2 -15 -16 -11
-23 6 -23 6 -3 -9 32 -25 58 -38 51 -25 -4 7 2 11 16 11 13 -1 47 1 76 4 72 6
64 -9 -31 -60 -42 -23 -74 -38 -71 -33 3 5 1 9 -5 9 -5 0 -13 -5 -16 -11 -4
-5 -12 -8 -18 -6 -7 2 -20 -5 -30 -17 -15 -17 -20 -18 -27 -6 -7 11 -10 12
-10 2 0 -7 -5 -10 -10 -7 -6 4 -17 1 -25 -5 -11 -9 -17 -7 -26 8 -7 11 -18 18
-26 15 -7 -3 -16 3 -19 13 -17 55 -27 73 -35 68 -5 -3 -8 0 -7 7 2 6 -2 13 -8
16 -10 3 -21 -20 -30 -66 -5 -24 37 -53 64 -46 22 5 24 3 18 -17 -14 -47 -18
-63 -20 -80 -1 -9 -8 -23 -14 -31 -7 -8 -13 -26 -14 -40 -1 -15 -8 -29 -15
-31 -7 -3 -13 -11 -13 -18 0 -9 3 -8 10 2 6 10 10 11 10 3 0 -7 -9 -22 -21
-34 -12 -12 -30 -49 -41 -82 -23 -69 -35 -88 -46 -71 -17 26 -39 21 -57 -12
-10 -19 -22 -34 -27 -34 -4 0 -8 -6 -8 -14 0 -16 27 -29 42 -19 7 3 8 1 4 -6
-5 -8 0 -10 19 -7 l27 5 -18 -27 c-9 -15 -23 -31 -31 -35 -7 -4 -13 -13 -13
-18 0 -6 -9 -29 -19 -52 -10 -23 -25 -61 -31 -84 -13 -41 -40 -60 -80 -54 -13
2 -13 1 0 -8 8 -6 28 -11 43 -11 28 0 28 0 25 -59 -2 -32 -6 -57 -9 -56 -3 2
-12 -18 -20 -46 l-16 -49 24 0 c13 0 23 5 23 11 0 7 9 0 20 -14 11 -14 20 -30
20 -37 0 -6 5 -8 10 -5 6 4 26 -9 45 -29 40 -42 100 -60 145 -43 17 6 30 17
30 25 0 10 8 8 28 -7 23 -16 32 -18 42 -8 9 8 11 8 6 0 -4 -7 1 -9 15 -6 34 9
94 -17 113 -48 12 -20 13 -29 5 -29 -23 0 -2 -11 30 -15 17 -2 29 0 26 4 -8
14 48 33 113 37 39 3 62 1 62 -6 0 -5 14 -10 31 -10 29 0 30 -1 24 -32 -11
-55 -16 -68 -26 -68 -6 0 -7 -4 -4 -10 7 -11 -42 -158 -165 -505 -46 -126
-106 -297 -135 -380 -29 -82 -60 -170 -69 -195 -8 -25 -39 -116 -67 -202 -28
-87 -54 -158 -57 -158 -13 1 -57 29 -47 30 12 1 -84 53 -105 56 -8 2 -21 -3
-30 -10 -28 -24 -40 -28 -40 -12 0 8 9 17 19 21 16 5 12 13 -35 62 -32 33 -53
62 -50 70 3 8 1 11 -4 8 -6 -3 -10 -2 -10 4 0 5 -27 42 -60 83 -33 40 -60 80
-60 89 0 9 11 24 24 33 14 8 39 36 56 61 l31 44 -25 58 c-13 32 -29 96 -35
143 -10 75 -9 86 5 97 13 9 13 15 4 33 -7 12 -10 35 -8 51 3 16 1 29 -4 29 -4
0 -8 9 -8 19 0 11 -3 22 -7 24 -5 3 -6 -22 -5 -54 3 -37 -1 -65 -8 -74 -10
-12 -10 -15 1 -15 10 0 10 -3 1 -12 -7 -7 -12 -22 -12 -34 0 -16 -8 -24 -28
-28 -61 -14 -250 29 -335 77 -42 24 -46 44 -22 117 19 57 77 245 117 375 16
55 39 122 51 149 14 34 17 51 10 53 -7 3 -10 10 -7 18 4 9 0 12 -14 8 -27 -7
-40 17 -17 33 14 11 20 10 32 -2 8 -7 16 -14 18 -14 6 0 -7 32 -23 58 -15 23
-12 25 25 22 16 -1 24 6 29 24 3 14 12 26 19 26 7 0 25 6 39 14 25 13 25 14 6
19 -11 3 -23 1 -26 -4 -7 -13 -17 -11 -40 6 -10 8 -14 15 -9 14 34 -5 34 4 0
16 -49 18 -45 18 -45 0 0 -24 -23 -17 -52 15 l-26 30 24 0 c15 0 24 6 24 15 0
12 5 13 28 3 15 -7 34 -18 43 -25 15 -12 17 -11 17 12 0 15 -6 25 -15 25 -8 0
-11 5 -8 10 5 9 -6 14 -25 12 -3 0 -7 12 -8 27 -2 23 4 31 27 41 16 6 32 18
34 25 3 6 24 15 46 19 23 3 41 10 41 15 0 5 6 8 13 7 6 0 13 3 14 7 1 4 16 20
33 34 22 18 28 28 19 34 -13 8 -32 -6 -42 -31 -3 -9 -6 -10 -6 -2 -1 17 -26
15 -45 -4 -15 -14 -16 -14 -16 2 0 14 -2 15 -17 3 -13 -11 -17 -11 -20 -1 -3
6 -16 12 -29 12 -13 0 -24 4 -24 9 0 5 -9 7 -20 4 -11 -3 -20 -9 -20 -14 0 -5
-8 -9 -17 -9 -16 0 -43 40 -43 63 0 5 -10 17 -22 27 l-22 17 23 8 c18 5 20 9
10 21 -6 8 -8 14 -5 14 4 0 1 7 -8 15 -8 8 -19 15 -24 15 -13 0 -52 44 -52 61
-1 8 -8 -6 -16 -30 -15 -41 -15 -46 0 -57 15 -10 14 -12 -9 -18 -15 -4 -23
-11 -19 -17 4 -8 9 -7 15 2 7 11 9 10 9 -3 0 -9 -6 -20 -12 -25 -9 -5 -3 -9
16 -13 37 -6 37 -21 2 -38 -14 -7 -26 -18 -26 -24 0 -6 6 -6 15 2 9 7 18 10
21 7 3 -3 17 -2 30 3 15 6 24 6 24 0 0 -6 -5 -10 -11 -10 -5 0 -8 -4 -5 -9 4
-5 -13 -9 -37 -9 -23 1 -56 -7 -72 -16 -17 -10 -22 -15 -13 -12 10 3 20 0 24
-6 4 -7 9 -6 15 3 8 12 11 11 19 -1 5 -8 10 -10 10 -5 0 12 55 14 66 3 4 -5 2
-8 -4 -8 -7 0 -21 -9 -31 -19 -11 -11 -34 -27 -51 -36 -26 -13 -29 -19 -20
-35 9 -16 7 -22 -5 -26 -8 -3 -15 -14 -15 -24 0 -11 -4 -22 -10 -25 -5 -3 -10
-13 -10 -20 0 -12 5 -12 25 -3 14 6 25 16 25 22 0 6 5 4 10 -4 8 -12 11 -13
19 -1 5 8 11 9 15 3 3 -6 2 -13 -4 -17 -5 -3 -10 -10 -10 -16 0 -14 28 -11 33
4 4 8 6 8 6 0 1 -9 -51 -48 -84 -62 -32 -14 -46 -51 -19 -51 12 0 15 -6 10
-26 -6 -21 -4 -25 8 -21 20 8 20 -2 1 -27 -8 -11 -15 -28 -15 -38 0 -15 3 -17
19 -8 25 13 38 -5 14 -19 -20 -11 -26 -61 -7 -61 6 0 17 7 24 15 7 8 17 12 23
8 6 -4 8 0 4 10 -3 9 0 18 9 21 8 3 14 1 14 -5 0 -6 4 -8 9 -4 5 3 12 1 15 -4
3 -5 -1 -11 -9 -15 -8 -3 -15 -12 -15 -20 0 -7 -10 -16 -22 -20 -19 -5 -20 -8
-8 -16 20 -12 0 -46 -25 -43 -10 1 -29 -3 -43 -8 -23 -9 -24 -8 -18 18 6 23 5
25 -8 14 -8 -7 -21 -9 -27 -5 -9 5 -7 11 7 21 18 14 18 15 -5 32 -16 12 -20
21 -12 25 6 4 11 12 11 18 0 6 -8 4 -18 -5 -16 -15 -20 -15 -40 -1 -28 20 -28
34 1 34 16 0 18 3 8 9 -10 6 -10 10 -1 16 8 5 6 11 -7 22 -10 8 -13 12 -6 9 6
-4 19 1 27 10 15 14 15 18 -1 45 -10 16 -20 24 -24 18 -3 -6 -9 -10 -13 -10
-20 3 -26 -1 -26 -13 0 -8 -5 -18 -10 -21 -6 -4 -10 -3 -9 2 4 21 -3 31 -23
37 -21 6 -21 7 -5 17 20 12 23 41 3 33 -8 -3 -17 0 -21 6 -4 7 2 14 14 17 31
8 26 21 -6 15 -22 -4 -25 -2 -21 15 4 16 1 19 -13 16 -10 -3 -15 -11 -12 -19
3 -8 1 -20 -5 -27 -5 -6 -8 -20 -7 -29 2 -12 -3 -18 -16 -18 -22 0 -87 -28
-111 -49 -11 -8 -18 -10 -18 -3 0 6 -3 18 -7 28 -5 13 -3 16 10 11 22 -8 22 1
0 25 -18 20 -4 25 15 6 15 -15 16 -3 2 22 -9 16 -4 15 34 -6 l44 -25 -4 31
c-4 21 -1 32 10 36 9 3 13 10 10 15 -3 5 0 9 6 9 6 0 9 4 5 9 -3 6 11 9 34 7
49 -4 58 13 17 34 -16 8 -31 22 -34 30 -2 11 0 11 11 -2 8 -10 17 -15 20 -11
4 3 2 12 -5 20 -8 11 -7 12 5 7 8 -3 24 -1 35 5 13 7 22 7 31 -2 10 -9 11 -8
6 6 -8 20 -55 22 -124 6 -51 -11 -56 -9 -37 16 10 14 26 19 55 19 22 0 41 3
41 7 0 8 -36 19 -64 19 -22 0 -60 40 -48 52 4 4 20 9 35 10 17 2 23 6 17 12
-15 15 -12 26 5 20 8 -4 15 -1 15 5 0 6 -9 11 -19 11 -11 0 -21 6 -24 13 -4 9
-8 9 -23 -1 -11 -6 -26 -15 -34 -18 -8 -3 -30 -13 -48 -21 -19 -8 -36 -12 -39
-9 -4 3 -1 6 7 6 9 0 10 3 1 13 -8 10 -7 14 4 14 8 0 12 -4 9 -9 -3 -4 -1 -8
4 -8 6 0 12 6 15 14 4 9 15 12 33 8 19 -3 25 -1 20 7 -4 6 -11 9 -15 7 -4 -3
-8 1 -8 9 0 8 4 15 10 15 12 0 46 43 40 52 -2 5 -10 8 -16 8 -7 0 -6 -4 3 -10
17 -11 0 -13 -25 -4 -14 6 -9 14 25 45 24 22 50 39 59 39 9 0 12 3 6 8 -14 10
-36 73 -29 83 3 5 0 18 -7 31 -11 21 -12 21 -25 3 -10 -13 -10 -23 -3 -37 8
-15 8 -23 -2 -32 -9 -8 -10 -8 -5 2 11 19 -23 27 -58 14 -19 -7 -32 -8 -34 -3
-2 6 -10 7 -18 4 -13 -5 -13 -7 -3 -14 18 -11 -26 -58 -52 -56 -19 1 -35 45
-30 81 2 13 -1 16 -11 11 -10 -6 -11 -5 0 6 9 10 15 10 24 1 16 -16 25 -15 32
3 4 10 -1 14 -17 12 -14 -1 -22 4 -22 13 0 8 -4 21 -8 28 -5 7 -3 12 7 12 8 0
15 8 15 18 -1 9 2 27 6 40 10 31 -5 28 -38 -8 -27 -28 -56 -42 -42 -20 3 6 -2
10 -12 10 -14 0 -15 2 -4 9 11 7 11 10 0 15 -8 3 -3 4 11 2 23 -5 24 -4 7 8
-13 11 -15 15 -5 19 8 3 4 9 -12 15 -14 6 -19 11 -11 11 7 1 11 7 7 16 -3 8 0
15 6 15 7 0 7 4 -1 14 -9 11 -9 15 1 19 7 3 3 6 -9 6 -16 1 -23 7 -23 20 0 26
-12 32 -48 25 -24 -5 -28 -9 -19 -19 7 -7 17 -11 23 -8 14 5 24 -30 14 -48 -7
-10 -13 -9 -32 3 -23 15 -24 15 -23 -2 2 -24 24 -50 43 -50 8 0 12 -3 9 -7 -4
-3 -2 -12 4 -20 9 -10 8 -13 -5 -13 -9 0 -16 -4 -16 -10 0 -5 -6 -10 -14 -10
-8 0 -16 -7 -20 -15 -3 -8 -1 -15 4 -15 6 0 10 -7 10 -15 0 -8 -4 -15 -10 -15
-15 0 -12 -37 4 -43 8 -3 17 0 20 8 3 8 -3 16 -12 18 -13 4 -12 5 4 6 29 1 37
-22 14 -42 -13 -11 -21 -12 -29 -4 -8 8 -11 -67 -11 -276 0 -235 2 -285 13
-281 8 3 20 -3 27 -13 11 -14 11 -15 1 -6 -7 6 -20 9 -27 6 -19 -7 -21 -323
-1 -323 8 0 8 -3 1 -8 -6 -4 -11 -28 -13 -54 -2 -42 0 -47 16 -42 17 5 17 5 1
-6 -11 -6 -18 -23 -17 -38 0 -15 3 -21 6 -14 2 6 14 12 25 12 17 0 18 -2 4
-15 -8 -8 -19 -15 -25 -15 -6 0 -10 -113 -10 -329 -1 -290 1 -330 15 -335 14
-5 14 -7 0 -22 -18 -18 -23 -168 -6 -179 6 -3 10 -12 10 -18 0 -7 -4 -6 -10 3
-7 11 -10 2 -10 -33 l0 -47 24 15 c13 9 36 15 51 13 39 -4 50 29 25 76 -10 20
-15 36 -10 36 4 0 15 -18 25 -40 10 -22 22 -37 27 -34 4 3 6 10 3 15 -4 5 3 9
14 9 12 0 21 -5 21 -11 0 -5 -4 -8 -9 -4 -5 3 -19 -7 -30 -22 -11 -16 -25 -33
-31 -40 -5 -7 -10 -17 -10 -22 0 -6 -10 -16 -22 -22 -19 -10 -24 -9 -36 9 -21
31 -42 16 -42 -30 0 -29 3 -37 13 -32 9 6 9 4 -1 -8 -11 -14 -11 -16 0 -14 31
7 48 19 48 36 0 10 7 21 16 24 14 5 15 4 5 -8 -10 -12 -9 -13 8 -9 12 3 21 1
21 -6 0 -6 -5 -10 -12 -8 -7 1 -13 -8 -14 -20 -1 -12 3 -20 8 -17 4 3 6 9 3
14 -10 16 20 17 35 0 8 -9 23 -19 33 -23 21 -8 23 -27 2 -27 -8 0 -15 -4 -15
-9 0 -5 -10 -11 -22 -13 -13 -2 -22 -9 -20 -16 2 -10 -2 -10 -17 0 -23 14 -35
48 -18 48 7 0 5 4 -3 10 -9 5 -19 5 -24 0 -4 -4 -14 -6 -21 -4 -7 3 -16 0 -21
-7 -4 -7 -3 -10 2 -7 5 2 20 -7 34 -21 l25 -25 -27 17 c-15 9 -29 13 -32 9 -8
-13 -3 -132 5 -126 5 3 9 0 9 -5 0 -6 -4 -11 -10 -11 -5 0 -10 -11 -10 -25 0
-26 14 -33 26 -13 5 7 2 9 -7 4 -8 -4 -3 2 11 13 14 11 29 21 33 21 5 0 5 5 1
11 -4 7 -1 10 7 7 8 -3 19 4 26 16 8 14 12 16 13 6 0 -8 -9 -29 -20 -47 -10
-18 -16 -34 -12 -36 15 -9 132 -5 132 4 0 6 8 9 18 7 17 -3 19 4 7 34 -5 13
-2 15 14 11 12 -3 21 -1 21 6 0 6 5 11 11 11 5 0 7 -5 4 -10 -3 -6 1 -13 9
-16 9 -3 16 -11 16 -17 0 -7 -4 -7 -12 1 -7 7 -16 12 -22 12 -5 0 -6 -3 -3 -6
3 -4 2 -15 -3 -24 -8 -15 -4 -18 30 -18 29 -1 40 3 40 14 0 8 4 13 8 10 4 -2
14 -1 22 5 12 7 12 9 -3 9 -10 0 -15 5 -12 10 9 15 45 -7 39 -24 -8 -22 54
-18 66 4 13 25 13 43 -2 34 -6 -4 -8 -3 -5 4 10 15 49 2 43 -14 -3 -8 -1 -14
5 -14 6 0 9 -6 6 -14 -8 -20 7 -24 112 -25 62 -1 99 3 109 11 12 10 14 10 8 1
-5 -9 0 -13 13 -13 13 0 21 7 21 18 0 9 21 98 46 197 46 180 46 180 51 394 4
138 9 208 15 198 5 -10 24 -27 43 -40 30 -20 42 -23 82 -17 27 5 51 4 54 -1 3
-6 14 -7 24 -3 13 5 16 4 11 -4 -4 -7 -4 -12 1 -12 4 0 9 -27 10 -61 2 -58 2
-60 -20 -53 -21 6 -21 5 -6 -12 8 -11 16 -33 17 -50 2 -25 -3 -33 -19 -37 -16
-4 -20 -11 -16 -27 3 -12 3 -19 0 -16 -7 7 -33 -19 -33 -33 0 -6 -4 -11 -10
-11 -5 0 -10 -6 -10 -12 0 -7 -7 -26 -15 -42 -9 -17 -26 -71 -38 -120 -21 -85
-21 -92 -5 -108 9 -9 19 -38 23 -65 11 -85 -28 -78 446 -80 398 -2 422 -1 391
15 -44 22 -39 48 8 44 19 -2 39 -8 44 -13 6 -5 17 -9 25 -9 10 1 -4 19 -33 44
l-50 44 12 41 c11 34 17 41 38 41 20 0 25 4 20 16 -18 47 -16 68 14 156 18 51
37 98 42 105 5 6 11 23 14 38 3 15 58 185 122 379 65 193 136 415 158 493 34
125 42 143 60 143 19 0 20 -5 17 -112 -1 -61 -7 -116 -13 -122 -5 -5 -10 -46
-10 -90 0 -70 -23 -225 -71 -479 -7 -37 -16 -67 -20 -67 -5 0 -6 -6 -3 -14 3
-8 0 -17 -7 -22 -8 -5 -10 -3 -4 7 5 8 4 11 0 6 -11 -9 -14 -31 -20 -127 -3
-41 -8 -91 -12 -110 -3 -19 -7 -80 -8 -135 -1 -116 -9 -145 -36 -145 -10 0
-19 -4 -19 -9 0 -5 -9 -11 -20 -14 -28 -7 -27 -47 1 -47 11 0 17 -4 14 -10 -3
-6 1 -7 9 -4 12 5 16 0 16 -20 0 -18 5 -26 18 -26 18 0 40 59 78 210 9 36 23
81 31 100 23 55 101 309 122 401 22 91 51 335 51 422 0 30 7 68 16 85 10 22
12 37 6 49 -5 10 -10 63 -11 118 l-1 100 46 28 c25 15 53 27 62 27 18 0 52 33
52 50 0 6 5 10 12 10 6 0 3 7 -8 15 -18 14 -18 14 8 15 15 0 30 -5 34 -11 4
-8 9 -7 15 2 7 11 9 10 9 -3 0 -9 9 -23 19 -30 17 -12 117 -122 139 -153 4 -5
7 -20 8 -32 2 -74 4 -83 22 -84 10 0 12 -3 5 -6 -7 -2 -13 -12 -13 -20 0 -9 6
-13 14 -10 7 3 22 0 32 -7 37 -23 90 -35 144 -32 30 2 47 2 38 -1 -10 -2 -18
-14 -18 -26 0 -18 -2 -19 -10 -7 -8 12 -10 12 -10 -5 0 -16 -2 -17 -10 -5 -5
8 -12 11 -16 8 -11 -12 6 -76 21 -82 8 -3 15 -13 15 -21 0 -9 5 -13 10 -10 6
3 10 1 10 -5 0 -6 3 -9 8 -7 4 3 5 -15 3 -40 -2 -36 0 -44 10 -37 12 6 12 5 1
-8 -11 -14 -10 -17 5 -21 13 -3 11 -5 -7 -6 -31 -2 -65 -21 -37 -21 9 0 17 -5
17 -10 0 -6 -3 -9 -7 -9 -5 1 -10 0 -13 -1 -16 -6 -52 -5 -56 2 -8 13 -40 9
-53 -6 -9 -11 -8 -15 6 -20 15 -6 12 -10 -14 -23 -18 -8 -35 -24 -39 -35 -6
-21 6 -41 13 -20 5 14 43 17 43 3 0 -5 -10 -11 -22 -13 -17 -2 -22 -9 -21 -24
5 -47 -84 -83 -226 -91 -92 -6 -93 -6 -86 15 4 15 2 22 -7 22 -10 0 -9 3 2 10
13 8 13 10 -1 10 -26 0 -59 -89 -59 -160 0 -86 -17 -143 -56 -189 -32 -37 -45
-83 -25 -95 15 -9 20 5 11 30 -6 14 -6 26 0 29 6 4 10 1 10 -4 0 -6 16 -33 35
-60 53 -74 58 -96 41 -180 -8 -40 -22 -86 -30 -102 l-15 -30 237 2 c232 1 273
5 274 24 0 6 5 9 11 7 7 -2 21 -4 32 -5 11 0 27 -6 36 -14 16 -13 69 -15 66
-2 -2 6 50 59 58 59 2 0 2 -8 1 -17 -2 -10 -6 -16 -11 -15 -8 4 -25 -17 -25
-30 0 -5 51 -8 113 -8 63 0 106 4 99 9 -7 4 -12 14 -10 22 2 7 -6 15 -19 17
-22 3 -38 28 -24 37 5 3 12 -2 15 -11 3 -8 10 -12 16 -9 5 3 10 1 10 -5 0 -6
5 -8 10 -5 6 4 17 1 25 -5 8 -7 15 -9 15 -6 0 4 9 2 20 -4 16 -9 18 -8 14 5
-4 8 -1 15 5 15 19 0 12 29 -10 41 -13 7 -19 7 -15 1 3 -6 2 -13 -4 -17 -5 -3
-10 -1 -10 6 0 7 -10 9 -25 7 -14 -3 -25 -1 -25 3 0 19 -44 8 -67 -17 -13 -14
-27 -23 -30 -20 -13 12 58 67 77 61 11 -4 27 1 37 12 22 21 49 28 58 13 3 -5
11 -10 16 -10 6 0 7 5 4 10 -3 6 3 10 14 10 26 0 28 -31 6 -83 -14 -35 -14
-36 8 -33 34 5 67 18 67 26 0 4 11 5 24 3 13 -3 27 1 31 8 6 9 2 11 -13 7 -21
-6 -39 16 -23 27 5 2 7 27 4 54 -4 42 -2 49 16 54 12 3 21 11 21 17 0 9 -4 9
-17 -1 -15 -12 -16 -12 -11 2 4 9 1 22 -5 28 -8 8 -8 11 1 11 7 0 12 -4 12 -9
0 -4 12 -6 28 -4 21 4 24 2 12 -6 -12 -9 -9 -11 14 -11 22 0 27 -3 19 -11 -6
-6 -9 -18 -6 -25 4 -11 10 -9 24 7 11 12 19 17 19 10 0 -7 4 -10 9 -6 16 9 23
-13 11 -34 -9 -17 -6 -23 14 -37 14 -8 30 -13 36 -9 5 3 10 1 10 -6 0 -8 4 -8
15 1 12 10 15 10 15 -1 0 -11 2 -11 8 -2 6 9 12 7 22 -7 8 -11 20 -20 27 -20
7 0 13 -5 13 -11 0 -6 9 -8 20 -4 21 7 28 -10 8 -18 -8 -3 -5 -6 5 -6 10 -1
26 7 35 16 16 16 17 16 20 0 2 -9 10 -17 18 -17 8 0 14 -7 14 -15 0 -8 -4 -15
-10 -15 -5 0 -10 -4 -10 -10 0 -5 6 -10 14 -10 11 0 14 25 15 122 2 103 0 120
-12 109 -11 -9 -17 -8 -28 5 -11 13 -11 15 2 14 28 -4 39 0 39 16 0 13 -6 15
-27 9 -16 -3 -29 -11 -31 -16 -5 -13 -21 -11 -37 5 -18 18 -6 29 14 13 14 -10
14 -10 3 4 -18 24 -5 51 22 44 18 -5 19 -5 4 5 -19 12 -26 80 -8 80 6 0 10 5
10 10 0 6 -6 10 -12 10 -7 0 -32 8 -55 18 -43 17 -56 32 -29 32 8 0 21 6 29
14 12 12 15 9 26 -20 12 -34 31 -46 31 -20 0 8 6 17 13 20 9 3 8 8 -3 18 -8 7
-20 23 -27 35 -11 19 -9 21 13 26 13 2 27 0 30 -4 3 -5 12 -9 20 -9 11 0 14
16 14 70 0 56 -3 70 -15 70 -8 0 -15 5 -15 10 0 6 7 10 15 10 10 0 15 11 15
35 0 28 -4 35 -19 35 -10 0 -25 7 -32 16 -12 15 -10 16 19 10 32 -8 32 -7 32
33 0 34 -3 39 -20 36 -15 -3 -20 2 -20 16 0 11 -11 31 -25 44 -31 32 -21 32
21 0 18 -14 35 -25 38 -25 3 0 5 31 5 68 l0 68 -77 29 c-86 32 -105 43 -96 57
3 5 12 1 20 -9 13 -17 13 -17 14 1 0 15 5 17 30 13 19 -4 30 -2 30 5 0 6 11 8
30 5 18 -4 30 -2 30 4 0 6 5 7 10 4 6 -3 10 3 10 14 0 11 -9 25 -20 31 -11 6
-20 15 -20 19 0 5 9 7 20 4 18 -5 20 0 20 54 0 54 -2 61 -25 71 -14 6 -25 8
-25 3 0 -4 -13 -8 -30 -7 -33 1 -42 16 -9 16 11 0 18 4 15 9 -11 17 6 41 28
41 39 0 47 13 40 64 -8 54 -25 76 -60 76 -13 0 -24 4 -24 10 0 5 -7 7 -15 4
-8 -4 -15 -1 -15 6 0 6 5 8 10 5 6 -3 10 -2 10 3 0 16 51 4 74 -17 20 -19 23
-20 23 -4 0 10 -5 21 -11 26 -8 5 -8 9 0 15 7 4 12 19 12 34 0 26 -1 26 -39
13 -41 -15 -54 -4 -27 23 9 9 6 12 -14 10 -20 -2 -24 -6 -17 -14 7 -8 6 -14
-1 -19 -5 -3 -14 4 -19 17 -6 13 -10 17 -10 11 -1 -14 -31 -18 -31 -5 0 4 -11
9 -25 10 -14 1 -25 -4 -25 -11 0 -9 -2 -9 -8 0 -8 13 -76 13 -88 0 -11 -11
-36 -8 -29 4 15 23 110 46 121 28 3 -5 26 -9 52 -9 38 0 50 5 67 25 11 15 33
27 50 29 21 3 29 8 27 20 -2 9 1 16 5 16 5 0 9 33 8 73 0 65 -2 73 -22 82 -21
9 -32 26 -15 24 35 -6 37 0 37 103 0 100 0 102 -25 110 -25 7 -25 8 2 4 l28
-3 0 599 c0 329 -4 597 -8 594 -5 -3 -7 -19 -4 -36 3 -20 -1 -37 -12 -49 -12
-13 -14 -21 -7 -26 16 -10 13 -28 -4 -21 -8 3 -20 0 -27 -7 -7 -7 -22 -14 -33
-15 -11 -2 -27 -10 -36 -18 -8 -8 -21 -14 -27 -14 -9 0 -9 -5 0 -21 10 -17 10
-23 1 -26 -7 -3 -13 -11 -13 -19 0 -8 -7 -14 -15 -14 -8 0 -26 -5 -40 -12 -18
-8 -22 -14 -13 -19 10 -6 7 -15 -13 -33 -34 -32 -63 -40 -78 -22 -10 12 -8 16
8 21 11 3 20 11 18 18 -1 6 4 12 11 13 6 1 17 2 22 3 6 0 10 5 10 10 0 12 -50
7 -58 -5 -10 -14 -72 -17 -72 -4 0 6 -6 8 -12 5 -7 -4 -4 1 7 9 11 9 25 14 33
11 7 -2 19 1 26 7 11 10 6 18 -22 40 -43 34 -50 35 -58 3 -7 -29 -16 -31 -34
-10 -7 8 -19 15 -26 15 -23 0 -40 48 -26 71 17 26 15 29 -13 29 -14 0 -25 5
-25 10 0 6 5 10 11 10 5 0 7 5 4 10 -3 6 -14 10 -24 10 -23 0 -46 26 -32 34 5
4 12 2 15 -3 4 -5 16 -4 30 2 29 14 24 27 -9 27 -13 0 -27 5 -30 10 -3 6 -22
10 -41 10 -21 0 -33 4 -29 10 3 6 15 10 27 10 17 0 18 2 8 15 -10 12 -10 15 1
15 8 0 5 6 -7 15 -18 14 -17 14 16 9 26 -4 31 -3 20 5 -8 6 -11 11 -6 11 5 0
1 9 -10 21 -12 13 -14 23 -8 27 6 4 13 17 16 30 5 17 2 22 -13 22 -10 0 -19
-7 -19 -15 0 -8 -5 -15 -11 -15 -5 0 -8 4 -4 9 3 5 1 12 -5 16 -6 3 -13 -1
-16 -10z m36 -54 c0 -17 -15 -19 -28 -5 -11 12 -9 14 8 14 11 0 20 -4 20 -9z
m-20 -75 c0 -3 -4 -8 -10 -11 -5 -3 -10 -1 -10 4 0 6 5 11 10 11 6 0 10 -2 10
-4z m35 -126 c-4 -6 -17 -6 -57 -1 -3 1 -4 10 -1 21 5 19 6 19 34 3 15 -9 26
-20 24 -23z m-110 0 c-27 -12 -35 -12 -35 0 0 6 12 10 28 9 24 0 25 -1 7 -9z
m-45 -19 c0 -5 -7 -14 -15 -21 -16 -14 -18 -10 -9 14 6 17 24 22 24 7z m7
-107 c-3 -3 -12 -4 -19 -1 -8 3 -5 6 6 6 11 1 17 -2 13 -5z m80 -30 c-3 -3
-12 -4 -19 -1 -8 3 -5 6 6 6 11 1 17 -2 13 -5z m-7 -58 c0 -2 -7 -6 -15 -10
-8 -3 -15 -1 -15 4 0 6 7 10 15 10 8 0 15 -2 15 -4z m48 -68 c-3 -7 -16 -13
-31 -13 -20 -1 -24 2 -15 12 14 17 51 17 46 1z m422 7 c0 -3 -9 -15 -20 -27
-10 -12 -17 -25 -14 -30 3 -4 0 -8 -5 -8 -16 0 -13 18 7 45 16 23 32 32 32 20z
m-311 -49 c51 -13 52 -13 87 14 19 16 40 27 47 26 20 -3 71 -45 64 -53 -4 -3
-13 0 -21 6 -10 8 -16 9 -21 1 -3 -5 -15 -10 -26 -10 -16 0 -19 -4 -14 -21 7
-20 6 -20 -25 -4 -30 15 -33 15 -44 -1 -9 -11 -15 -13 -20 -6 -3 6 -18 9 -32
6 -27 -5 -58 12 -48 27 3 5 -4 9 -16 9 -12 0 -18 5 -15 10 3 6 -1 10 -9 10 -9
0 -16 4 -16 8 0 18 13 20 35 6 12 -8 45 -20 74 -28z m359 -4 c2 -12 7 -22 11
-22 4 0 7 -13 6 -30 0 -16 -3 -30 -7 -30 -5 0 -8 -4 -8 -10 0 -5 7 -7 15 -3
13 5 14 2 4 -21 -7 -14 -16 -26 -20 -26 -16 0 -31 -41 -20 -54 19 -23 -41 -71
-62 -49 -4 3 2 13 14 21 16 11 17 17 8 28 -6 7 -16 11 -23 7 -6 -3 -7 -2 -3 3
4 4 18 9 30 9 17 0 23 8 28 40 6 31 4 43 -9 52 -18 15 -16 18 18 32 22 9 21
10 -17 10 -38 1 -43 3 -40 24 2 21 41 48 62 43 6 -1 11 -12 13 -24z m-428 -46
c0 -2 -7 -9 -15 -16 -13 -11 -14 -10 -9 4 5 14 24 23 24 12z m66 -11 c8 -3 12
-10 9 -15 -5 -8 -11 -7 -20 0 -8 7 -24 9 -37 4 -20 -6 -21 -5 -10 9 8 9 20 14
28 11 8 -2 21 -6 30 -9z m256 -17 c-6 -6 -15 -8 -19 -4 -4 4 -1 11 7 16 19 12
27 3 12 -12z m-325 -14 c-3 -3 -12 -4 -19 -1 -8 3 -5 6 6 6 11 1 17 -2 13 -5z
m-1172 -35 c-4 -5 -13 -9 -21 -9 -12 0 -12 2 -2 14 14 15 32 11 23 -5z m1251
5 c-1 -16 83 -68 93 -58 6 6 31 -17 31 -28 0 -6 -7 -8 -15 -4 -10 3 -15 -1
-15 -13 0 -11 -6 -22 -12 -24 -7 -3 1 -6 17 -6 17 -1 36 -5 44 -10 8 -5 24 -6
37 -1 16 6 33 3 60 -11 21 -10 46 -19 56 -19 10 0 18 -7 18 -16 0 -11 -5 -14
-16 -10 -9 4 -22 2 -29 -4 -16 -14 -45 -2 -45 18 0 11 -3 13 -11 5 -13 -13
-79 4 -95 26 -8 10 -21 12 -50 6 l-39 -7 28 22 c33 26 35 50 5 51 -26 1 -35 3
-64 13 -17 6 -20 15 -18 44 2 44 2 42 13 42 5 0 8 -7 7 -16z m209 -14 c3 -6
-4 -10 -17 -10 -18 0 -20 2 -8 10 19 12 18 12 25 0z m-1527 -26 c15 -4 11 -59
-7 -92 -11 -21 -9 -28 15 -63 15 -22 36 -45 46 -50 37 -20 16 -27 -77 -25 -98
1 -121 -7 -108 -41 3 -8 -3 -13 -17 -13 -19 0 -20 2 -10 15 10 12 9 19 -3 38
-14 21 -21 23 -83 20 -95 -5 -136 -12 -129 -24 4 -5 -6 -9 -20 -9 l-26 0 20
29 c12 16 41 41 65 55 46 27 96 86 61 72 -15 -6 -16 -4 -5 10 23 27 91 56 121
52 19 -3 29 0 29 8 0 24 50 42 84 31 17 -5 37 -12 44 -13z m1079 10 c-3 -3
-12 -4 -19 -1 -8 3 -5 6 6 6 11 1 17 -2 13 -5z m-64 -11 c-7 -2 -19 -2 -25 0
-7 3 -2 5 12 5 14 0 19 -2 13 -5z m489 -74 c-4 -18 -48 -23 -58 -7 -3 5 6 18
20 29 14 11 27 28 27 37 1 9 4 4 8 -13 4 -16 5 -37 3 -46z m183 61 c-3 -5 -12
-10 -18 -10 -7 0 -6 4 3 10 19 12 23 12 15 0z m36 -27 c-8 -15 -10 -15 -11 -2
0 17 10 32 18 25 2 -3 -1 -13 -7 -23z m-881 -24 c-7 -11 -14 -18 -17 -15 -3 3
0 12 7 21 18 21 23 19 10 -6z m150 11 c-8 -5 -22 -9 -30 -9 -10 0 -8 3 5 9 27
12 43 12 25 0z m40 -21 c0 -5 -4 -9 -8 -9 -5 0 -9 7 -9 15 0 8 4 12 9 9 4 -3
8 -9 8 -15z m778 -35 c-9 -9 -21 -13 -27 -9 -16 10 -3 25 22 25 20 0 20 -1 5
-16z m-981 -26 c-3 -8 -6 -5 -6 6 -1 11 2 17 5 13 3 -3 4 -12 1 -19z m840 16
c-3 -3 -12 -4 -19 -1 -8 3 -5 6 6 6 11 1 17 -2 13 -5z m-237 -23 c0 -5 -7 -11
-15 -15 -9 -3 -15 0 -15 9 0 8 7 15 15 15 8 0 15 -4 15 -9z m315 -1 c-3 -5
-13 -10 -21 -10 -8 0 -12 5 -9 10 3 6 13 10 21 10 8 0 12 -4 9 -10z m-958 -41
c3 -34 -14 -66 -37 -72 -20 -5 -20 -4 -7 11 21 24 25 44 16 68 -6 18 -4 21 10
17 9 -2 18 -13 18 -24z m-2863 -4 c-4 -8 -8 -15 -10 -15 -2 0 -4 7 -4 15 0 8
4 15 10 15 5 0 7 -7 4 -15z m3766 -4 c0 -5 -7 -12 -16 -15 -14 -5 -15 -4 -4 9
14 17 20 19 20 6z m-317 -67 c-3 -8 -9 -14 -13 -14 -13 0 -22 19 -15 30 9 14
34 0 28 -16z m-1703 6 c0 -5 -6 -10 -13 -10 -8 0 -22 -10 -33 -21 -19 -22 -19
-22 3 -10 12 6 32 11 45 10 15 -1 7 -6 -24 -17 -27 -8 -48 -20 -48 -24 0 -5 8
-7 19 -3 15 4 18 1 14 -18 -4 -20 1 -25 37 -36 37 -11 46 -10 86 9 24 12 44
27 44 33 0 5 3 8 6 4 12 -11 -36 -75 -66 -87 -42 -18 -108 -7 -137 22 -44 45
-39 157 7 145 11 -3 23 -1 26 4 7 12 34 11 34 -1z m2005 0 c-27 -12 -43 -12
-25 0 8 5 22 9 30 9 10 0 8 -3 -5 -9z m-945 -51 c0 -8 -7 -24 -16 -35 -15 -19
-15 -18 -11 4 3 12 1 20 -3 17 -5 -3 -11 -1 -15 5 -3 5 1 10 9 10 10 0 16 9
16 23 0 18 2 19 10 7 5 -8 10 -22 10 -31z m976 18 c3 -24 -13 -21 -19 4 -3 12
-1 19 5 17 6 -2 12 -12 14 -21z m-786 -25 c0 -9 -4 -23 -9 -31 -6 -10 -9 -3
-8 22 1 34 17 43 17 9z m191 -3 c17 -33 27 -182 18 -276 -15 -143 -24 -120
-24 60 0 95 -4 187 -8 205 -8 37 -3 41 14 11z m304 11 c11 -5 14 -9 8 -9 -7
-1 -14 -9 -14 -18 -1 -16 -2 -16 -6 0 -5 18 -5 18 -19 0 -8 -11 -13 -13 -14
-5 0 6 -7 12 -15 12 -13 0 -14 3 -3 15 15 16 34 18 63 5z m-1544 -22 c1 -7 1
-17 0 -21 -3 -20 24 -94 42 -114 11 -13 17 -26 13 -30 -4 -4 -12 0 -17 10 -12
20 -62 23 -78 4 -6 -8 -10 -16 -8 -18 1 -2 -2 -1 -7 3 -6 5 -25 8 -43 8 -26 0
-33 4 -33 19 0 20 23 45 33 35 3 -3 18 13 33 35 14 23 32 41 38 41 6 0 5 4 -3
9 -7 5 -10 14 -7 20 10 15 36 14 37 -1z m1683 -9 c-27 -11 -34 -10 -34 0 0 11
31 20 44 13 5 -3 1 -9 -10 -13z m-224 2 c0 -13 -28 -22 -35 -11 -3 4 1 11 7
13 20 8 28 8 28 -2z m150 -7 c0 -8 -5 -12 -10 -9 -6 4 -8 11 -5 16 9 14 15 11
15 -7z m-3516 -32 c-13 -13 -17 -13 -29 -1 -12 12 -10 14 15 15 25 1 27 -1 14
-14z m1606 -7 c16 -30 54 -56 95 -65 26 -6 28 -8 11 -15 -11 -5 -37 -26 -59
-46 -36 -36 -38 -41 -32 -79 4 -22 13 -47 21 -54 8 -8 14 -22 14 -30 0 -20 1
-20 36 -1 16 8 45 15 65 15 24 0 36 5 35 13 0 6 4 14 9 15 6 2 15 8 22 14 7 5
18 6 25 2 7 -5 18 -9 23 -10 6 0 16 -2 23 -2 6 -1 12 -9 12 -18 0 -14 -9 -16
-52 -12 -51 5 -52 4 -23 -8 17 -7 43 -13 59 -14 16 0 27 -3 23 -6 -5 -6 -40
-10 -105 -13 -30 -1 -33 -4 -30 -28 3 -25 11 -31 68 -50 36 -12 55 -22 43 -22
-13 -1 -23 -4 -23 -8 0 -5 -37 -9 -81 -11 -73 -2 -87 1 -127 24 -24 14 -43 22
-41 18 23 -52 67 -125 90 -150 26 -27 28 -32 15 -44 -9 -7 -14 -15 -12 -19 2
-3 -10 -17 -27 -31 -17 -14 -27 -19 -23 -11 6 10 4 12 -10 7 -42 -13 -49 6
-47 131 3 102 0 122 -18 161 -12 24 -24 64 -27 89 -3 24 -11 47 -18 50 -17 6
-18 24 -1 21 8 -2 13 16 14 62 6 144 22 183 53 125z m1638 -20 c-1 -19 -5 -35
-9 -35 -4 0 -6 12 -4 28 2 15 4 30 4 35 1 4 3 7 6 7 3 0 5 -16 3 -35z m114 29
c3 -3 4 -14 1 -25 -6 -20 -53 -28 -53 -9 0 25 38 49 52 34z m-464 -71 c0 -20
-6 -37 -16 -43 -10 -5 -12 -10 -4 -10 6 0 12 -7 12 -15 0 -18 16 -20 23 -2 3
7 6 4 6 -6 1 -12 -5 -18 -16 -16 -30 3 -43 -1 -43 -11 0 -5 15 -10 33 -11 l32
-1 -35 -10 c-66 -17 -86 -20 -71 -10 13 9 18 27 20 74 1 9 8 23 16 31 8 8 12
17 8 20 -3 3 1 19 8 36 16 35 27 24 27 -26z m96 -2 c-4 -9 -7 -31 -8 -48 0
-18 -5 -33 -11 -33 -18 1 -47 29 -40 39 3 6 2 11 -3 11 -5 0 -7 11 -4 25 2 14
11 25 18 25 8 0 14 10 14 23 l1 22 20 -24 c12 -14 17 -31 13 -40z m-207 12
c-3 -10 -5 -4 -5 12 0 17 2 24 5 18 2 -7 2 -21 0 -30z m80 31 c-3 -3 -12 -4
-19 -1 -8 3 -5 6 6 6 11 1 17 -2 13 -5z m580 -39 c-9 -10 -14 -9 -24 4 -10 14
-12 13 -18 -12 -4 -15 -11 -27 -15 -27 -12 0 -21 30 -13 43 19 32 28 35 54 19
21 -11 24 -18 16 -27z m73 35 c0 -5 -9 -14 -21 -20 -19 -11 -20 -10 -9 9 11
22 30 29 30 11z m-1365 -19 c3 -5 -7 -19 -22 -31 -38 -30 -109 -25 -132 9
l-16 24 45 -5 c25 -3 59 -2 75 2 43 11 43 11 50 1z m1625 -10 c0 -4 -11 -6
-25 -3 -14 2 -25 6 -25 8 0 2 11 4 25 4 14 0 25 -4 25 -9z m-543 -33 c-3 -8
-6 -5 -6 6 -1 11 2 17 5 13 3 -3 4 -12 1 -19z m353 -8 c-14 -11 -33 -26 -42
-34 -31 -28 -33 -17 -3 14 16 17 35 30 42 30 7 0 13 5 13 12 0 6 3 8 8 4 4 -4
-4 -16 -18 -26z m-1404 2 c1 -7 0 -8 -3 -2 -2 5 -10 10 -15 10 -6 0 -8 -3 -5
-7 4 -3 0 -15 -10 -25 -17 -19 -59 -24 -82 -9 -11 7 -4 12 24 20 21 6 43 7 48
4 6 -3 7 -1 3 5 -3 5 0 13 6 15 18 7 31 3 34 -11z m1645 -59 c-4 -55 -5 -56
-14 -26 -5 17 -7 43 -3 57 11 46 21 28 17 -31z m-3651 37 c0 -5 -2 -10 -4 -10
-3 0 -8 5 -11 10 -3 6 -1 10 4 10 6 0 11 -4 11 -10z m40 -5 c0 -8 -7 -15 -15
-15 -8 0 -15 -5 -15 -11 0 -5 -4 -7 -10 -4 -12 8 10 45 27 45 7 0 13 -7 13
-15z m1300 11 c0 -3 -4 -8 -10 -11 -5 -3 -10 -1 -10 4 0 6 5 11 10 11 6 0 10
-2 10 -4z m1915 -16 c-3 -5 -1 -10 5 -10 6 0 9 -4 6 -8 -3 -5 -15 -8 -28 -7
-13 1 -35 -7 -50 -17 l-28 -19 -10 27 c-6 15 -8 29 -5 32 3 3 5 0 5 -6 0 -14
78 -6 95 9 12 12 18 11 10 -1z m-3385 -10 c0 -5 -7 -7 -15 -4 -8 4 -15 8 -15
10 0 2 7 4 15 4 8 0 15 -4 15 -10z m2378 -31 c-2 -18 -10 -25 -30 -27 -35 -4
-37 19 -7 49 25 25 42 14 37 -22z m852 35 c0 -4 -11 -17 -25 -30 -26 -24 -32
-17 -15 17 10 17 40 27 40 13z m230 -9 c0 -8 -7 -15 -15 -15 -13 0 -14 3 -3
15 16 18 18 18 18 0z m-1689 -24 l32 -20 -29 -6 c-16 -3 -44 -10 -61 -14 -30
-8 -32 -7 -23 9 10 19 38 50 45 50 3 0 19 -9 36 -19z m1132 6 c3 -8 2 -19 -3
-26 -5 -9 -9 -4 -12 13 -5 27 6 36 15 13z m-2778 -7 c3 -5 1 -10 -4 -10 -6 0
-11 5 -11 10 0 6 2 10 4 10 3 0 8 -4 11 -10z m2615 -11 c0 -11 -4 -18 -10 -14
-5 3 -14 -9 -19 -27 l-9 -33 -1 36 c-1 33 13 59 31 59 4 0 8 -9 8 -21z m505
11 c-3 -5 -16 -10 -28 -9 -20 1 -20 2 3 9 14 4 26 8 28 9 2 1 0 -3 -3 -9z
m465 2 c0 -5 -7 -9 -15 -9 -8 0 -15 4 -15 9 0 4 7 8 15 8 8 0 15 -4 15 -8z
m-140 -12 c0 -5 -5 -10 -11 -10 -5 0 -7 5 -4 10 3 6 8 10 11 10 2 0 4 -4 4
-10z m-111 -3 c-2 -1 -13 -9 -24 -17 -19 -14 -19 -14 -6 3 7 9 18 17 24 17 6
0 8 -1 6 -3z m-3519 -23 c0 -2 -7 -4 -15 -4 -8 0 -15 4 -15 10 0 5 7 7 15 4 8
-4 15 -8 15 -10z m2896 -18 c1 -18 -4 -26 -19 -28 -29 -4 -33 -26 -5 -31 l23
-4 -23 -8 c-17 -5 -20 -10 -11 -15 16 -11 18 -72 2 -66 -7 3 -15 1 -18 -4 -10
-17 -38 -12 -31 6 3 9 2 12 -5 8 -7 -4 -9 3 -7 17 2 16 9 24 21 23 18 -2 24
22 7 28 -14 4 21 78 37 78 7 0 13 5 13 10 0 22 15 8 16 -14z m460 -1 c-16 -24
-16 -25 4 -25 12 0 18 -4 15 -10 -3 -5 3 -10 14 -10 26 0 27 -23 4 -41 -10 -7
-15 -10 -11 -5 10 13 -34 58 -46 46 -17 -17 -23 -11 -18 15 2 14 11 25 18 25
8 0 13 3 13 8 -3 15 1 22 12 22 7 0 5 -10 -5 -25z m-3149 1 c-3 -8 -1 -17 6
-19 7 -2 9 -8 5 -12 -4 -4 -14 -2 -23 5 -12 10 -13 16 -4 26 15 18 23 18 16 0z
m2190 -8 c-3 -8 -6 -5 -6 6 -1 11 2 17 5 13 3 -3 4 -12 1 -19z m263 12 c0 -5
-2 -10 -4 -10 -3 0 -8 5 -11 10 -3 6 -1 10 4 10 6 0 11 -4 11 -10z m750 0 c0
-5 -2 -10 -4 -10 -3 0 -8 5 -11 10 -3 6 -1 10 4 10 6 0 11 -4 11 -10z m-2680
-4 c0 -3 -4 -8 -10 -11 -5 -3 -10 -1 -10 4 0 6 5 11 10 11 6 0 10 -2 10 -4z
m2947 -16 c3 -11 9 -20 14 -20 5 0 9 -4 9 -10 0 -5 -10 -10 -22 -10 -12 0 -29
-6 -38 -12 -9 -7 -5 -3 8 10 25 24 23 58 -3 48 -8 -3 -15 -1 -15 4 0 19 42 10
47 -10z m-367 -9 c0 -11 -8 -22 -17 -24 -15 -4 -14 -6 6 -13 l25 -7 -24 -9
c-18 -7 -21 -11 -11 -21 9 -9 14 -9 20 1 7 11 9 11 14 -1 3 -9 0 -21 -8 -27
-8 -6 -11 -18 -8 -26 3 -8 -1 -14 -11 -14 -9 0 -22 -12 -28 -26 -9 -18 -17
-24 -31 -20 -13 3 -27 -3 -38 -17 -18 -20 -19 -21 -13 -2 5 16 4 17 -5 5 -12
-18 -2 -30 28 -33 32 -2 25 -17 -8 -17 -20 0 -35 -8 -48 -25 -19 -26 -58 -40
-68 -24 -4 5 3 9 13 9 20 0 36 25 26 41 -3 5 0 9 5 9 6 0 11 7 11 15 0 46 53
88 78 63 11 -11 52 6 52 21 0 4 -15 13 -32 19 l-33 10 28 1 c26 1 27 2 12 17
-15 15 -14 18 1 43 16 23 16 25 1 12 -14 -11 -18 -11 -23 3 -8 21 22 49 46 43
11 -3 20 -1 20 4 0 5 5 9 10 9 6 0 10 -9 10 -19z m-3165 -11 c3 -5 2 -10 -4
-10 -5 0 -13 5 -16 10 -3 6 -2 10 4 10 5 0 13 -4 16 -10z m1210 -81 c-15 -41
-29 -82 -32 -91 -6 -21 -19 -23 -29 -6 -4 6 -3 8 3 5 11 -7 38 52 29 61 -3 2
-8 -7 -12 -22 -6 -26 -24 -36 -24 -13 0 6 11 36 25 65 14 30 23 58 20 62 -3 5
4 7 15 5 13 -3 20 2 21 13 0 9 3 12 5 6 3 -6 -7 -44 -21 -85z m1376 68 c-10
-9 -11 -8 -5 6 3 10 9 15 12 12 3 -3 0 -11 -7 -18z m-2536 3 c3 -5 2 -10 -4
-10 -5 0 -13 5 -16 10 -3 6 -2 10 4 10 5 0 13 -4 16 -10z m535 0 c0 -5 -7 -7
-15 -4 -8 4 -15 8 -15 10 0 2 7 4 15 4 8 0 15 -4 15 -10z m1220 0 c0 -5 -4
-10 -10 -10 -5 0 -10 5 -10 10 0 6 5 10 10 10 6 0 10 -4 10 -10z m701 -33 c-8
-8 -11 -5 -11 9 0 27 14 41 18 19 2 -9 -1 -22 -7 -28z m150 -11 c-6 -7 -19
-39 -30 -72 -22 -72 -47 -88 -37 -24 8 50 33 97 55 103 9 3 18 5 20 6 2 0 -2
-5 -8 -13z m179 -18 c0 -5 -3 -8 -7 -8 -5 0 -18 -3 -30 -6 -17 -5 -23 -2 -23
9 0 12 8 16 30 14 16 -1 30 -5 30 -9z m-2965 -8 c3 -5 1 -10 -4 -10 -6 0 -11
5 -11 10 0 6 2 10 4 10 3 0 8 -4 11 -10z m3160 -18 c11 -9 18 -16 16 -15 -2 2
-10 -2 -17 -8 -13 -10 -26 2 -30 29 -3 17 7 15 31 -6z m225 3 c0 -8 5 -15 12
-15 6 0 8 -3 4 -7 -4 -5 -14 1 -21 11 -13 18 -16 18 -40 2 -14 -9 -25 -12 -25
-7 0 13 30 30 53 31 9 0 17 -7 17 -15z m64 -3 c3 -5 -1 -9 -9 -9 -8 0 -15 4
-15 9 0 4 4 8 9 8 6 0 12 -4 15 -8z m-474 -30 c0 -15 -2 -15 -10 -2 -13 20
-13 33 0 25 6 -3 10 -14 10 -23z m-70 11 c-25 -10 -40 -36 -28 -50 7 -9 7 -13
-1 -13 -6 0 -18 -16 -26 -36 -18 -43 -18 -44 -4 -44 5 0 17 17 26 38 9 20 18
31 20 25 3 -7 -2 -26 -10 -43 -15 -28 -14 -30 4 -30 14 0 19 7 20 28 0 23 1
24 8 7 13 -32 2 -50 -31 -52 -38 -3 -47 -11 -28 -24 12 -7 11 -10 -8 -15 -15
-4 -19 -9 -12 -14 8 -5 6 -11 -5 -20 -11 -9 -15 -9 -15 -1 0 7 -4 9 -10 6 -5
-3 -10 -2 -10 3 0 6 -16 9 -35 7 -38 -4 -48 10 -15 20 12 4 20 15 20 28 0 12
3 33 7 45 4 18 8 21 15 10 6 -9 8 -1 6 23 -3 33 -1 37 20 37 13 0 29 5 35 12
10 10 4 11 -27 5 -36 -6 -38 -5 -27 9 8 9 23 16 35 16 12 0 31 7 42 15 10 8
26 14 34 14 13 -1 13 -1 0 -6z m598 -18 c-6 -7 -48 -15 -48 -10 0 2 7 11 16
20 12 11 20 13 27 6 6 -6 8 -13 5 -16z m-2653 4 c11 -17 -1 -21 -15 -4 -8 9
-8 15 -2 15 6 0 14 -5 17 -11z m1842 5 c-3 -3 -12 -4 -19 -1 -8 3 -5 6 6 6 11
1 17 -2 13 -5z m-2627 -25 c0 -5 -4 -9 -10 -9 -5 0 -10 7 -10 16 0 8 5 12 10
9 6 -3 10 -10 10 -16z m835 10 c10 -16 -22 -46 -57 -53 -22 -4 -37 -1 -49 10
-23 21 -14 38 11 22 16 -10 24 -9 47 9 32 25 39 27 48 12z m2501 -8 c8 6 14 7
14 2 0 -15 -47 -36 -61 -28 -9 6 -7 12 7 22 12 9 20 10 22 3 3 -8 8 -7 18 1z
m-128 -31 c-7 -11 -14 -17 -17 -15 -2 3 1 11 7 18 7 8 8 18 4 22 -4 5 -1 5 5
1 10 -5 10 -11 1 -26z m490 18 c20 -20 13 -27 -19 -18 -37 11 -45 7 -88 -42
-18 -21 -38 -38 -45 -38 -6 0 -3 5 7 11 9 5 26 28 37 49 19 37 23 40 86 49 5
0 15 -4 22 -11z m42 -18 c0 -5 -2 -10 -4 -10 -3 0 -8 5 -11 10 -3 6 -1 10 4
10 6 0 11 -4 11 -10z m-893 -22 c-3 -8 -6 -5 -6 6 -1 11 2 17 5 13 3 -3 4 -12
1 -19z m444 -5 c13 -16 12 -17 -3 -4 -10 7 -18 15 -18 17 0 8 8 3 21 -13z
m-2625 -10 c15 -16 14 -18 -27 -28 -52 -13 -59 -11 -58 18 1 17 2 18 6 5 6
-23 15 -23 39 1 24 24 20 24 40 4z m550 -24 c-9 -19 -15 -29 -16 -22 0 15 22
64 27 60 2 -2 -3 -19 -11 -38z m1374 31 c0 -5 -7 -10 -15 -10 -7 0 -19 -8 -24
-17 -7 -13 -10 -14 -11 -4 0 13 28 40 43 41 4 0 7 -4 7 -10z m663 3 c-7 -2
-19 -2 -25 0 -7 3 -2 5 12 5 14 0 19 -2 13 -5z m164 -15 c-2 -7 -16 -12 -31
-10 -14 1 -26 -2 -26 -8 0 -5 -4 -10 -10 -10 -21 0 -9 19 18 28 38 14 54 14
49 0z m-3248 -29 c-16 -10 -23 -4 -14 10 3 6 11 8 17 5 6 -4 5 -9 -3 -15z
m2827 6 c-25 -19 -37 -19 -30 0 4 8 16 15 28 15 21 -1 21 -1 2 -15z m199 5
c-3 -5 -12 -10 -18 -10 -7 0 -6 4 3 10 19 12 23 12 15 0z m-3059 -39 c-11 -18
-39 -13 -32 5 3 9 6 21 6 27 0 6 7 4 16 -5 9 -9 13 -21 10 -27z m3184 19 c0
-5 -5 -10 -11 -10 -5 0 -7 5 -4 10 3 6 8 10 11 10 2 0 4 -4 4 -10z m-3328 -38
c-9 -3 -9 -9 -2 -23 8 -13 7 -19 0 -19 -18 0 -22 27 -9 52 9 17 14 19 17 8 3
-7 0 -16 -6 -18z m59 -2 c18 0 9 -19 -12 -25 -30 -10 -43 14 -21 38 15 17 17
17 20 3 2 -9 8 -16 13 -16z m42 -2 c6 -22 5 -22 -8 -4 -17 22 -20 40 -6 32 5
-3 11 -16 14 -28z m117 28 c0 -9 -30 -14 -35 -6 -4 6 3 10 14 10 12 0 21 -2
21 -4z m-254 -63 c-11 -11 -17 4 -9 23 7 18 8 18 11 1 2 -10 1 -21 -2 -24z
m311 31 c-3 -3 -12 -4 -19 -1 -8 3 -5 6 6 6 11 1 17 -2 13 -5z m2898 -26 c-14
-11 -25 -26 -25 -34 0 -8 -4 -14 -9 -14 -12 0 8 62 22 72 6 3 16 4 24 1 9 -4
6 -11 -12 -25z m165 -5 c17 -9 20 -13 8 -13 -9 0 -20 4 -23 10 -8 13 -42 7
-58 -10 -10 -10 -9 -12 5 -7 12 4 16 1 15 -13 -1 -10 -4 -17 -8 -14 -4 2 -10
0 -14 -6 -12 -19 -23 -10 -21 19 3 57 32 68 96 34z m-3124 5 c-12 -7 -21 -7
-28 0 -6 6 0 10 18 10 23 0 24 -2 10 -10z m2223 -61 c0 -10 -3 -15 -9 -12 -5
3 -9 25 -9 48 1 40 2 40 9 12 4 -16 8 -38 9 -48z m-2378 30 c-8 -8 -11 -7 -11
4 0 20 13 34 18 19 3 -7 -1 -17 -7 -23z m3141 -2 c5 -26 -6 -32 -30 -16 -11 7
-12 12 -1 29 16 25 25 21 31 -13z m-3178 -8 c4 4 4 0 0 -10 -5 -15 -24 -25
-24 -13 0 2 -3 13 -7 23 -6 15 -4 16 9 6 8 -7 18 -10 22 -6z m2954 -22 c-2 -1
-19 -5 -38 -9 -36 -7 -32 9 5 16 18 4 41 0 33 -7z m72 -1 c0 -11 6 -14 23 -10
12 3 16 3 9 0 -6 -3 -9 -10 -6 -16 4 -6 -2 -6 -14 1 -16 8 -24 8 -34 -2 -20
-20 -41 -25 -63 -16 -19 7 -19 8 1 8 12 1 32 12 45 26 28 29 39 31 39 9z m264
-8 c-6 -17 -73 -51 -82 -42 -2 3 12 12 32 20 20 8 39 22 42 31 4 9 8 14 10 12
3 -2 2 -12 -2 -21z m277 -29 c-18 -18 -23 -1 -9 29 13 28 13 28 16 5 2 -13 -1
-28 -7 -34z m-1021 33 c0 -5 -2 -10 -4 -10 -3 0 -8 5 -11 10 -3 6 -1 10 4 10
6 0 11 -4 11 -10z m602 -33 c-5 -21 -5 -21 22 -4 15 10 30 16 33 14 2 -3 -5
-11 -17 -17 -13 -7 -19 -17 -16 -26 5 -12 1 -14 -17 -8 -12 3 -29 13 -38 20
-12 11 -18 11 -27 2 -9 -9 -12 -9 -12 1 0 7 -5 9 -11 5 -8 -5 -8 -1 0 14 10
19 51 32 77 24 7 -2 9 -13 6 -25z m-2548 15 c-6 -4 -13 -15 -17 -24 -6 -16
-27 -26 -27 -13 0 10 35 45 45 45 6 0 6 -3 -1 -8z m1799 -15 c3 -8 1 -20 -4
-28 -5 -9 -9 -9 -9 -2 0 6 -3 18 -6 27 -3 9 -2 16 4 16 5 0 12 -6 15 -13z
m-2308 -7 c3 -5 2 -10 -4 -10 -5 0 -13 5 -16 10 -3 6 -2 10 4 10 5 0 13 -4 16
-10z m2648 -17 c-11 -32 -15 -35 -24 -22 -6 10 -9 11 -9 2 0 -7 -6 -13 -13
-13 -8 0 -14 7 -14 15 0 8 6 15 14 15 7 0 13 5 13 10 0 6 9 10 20 10 14 0 18
-5 13 -17z m521 -7 c-10 -8 -21 -12 -24 -9 -3 2 4 11 14 19 11 7 22 12 25 9 2
-3 -4 -12 -15 -19z m-2624 0 c0 -14 -34 -28 -44 -18 -9 8 14 32 30 32 8 0 14
-6 14 -14z m1835 -6 c-27 -12 -43 -12 -25 0 8 5 22 9 30 9 10 0 8 -3 -5 -9z
m530 -9 c-5 -17 -2 -18 36 -11 36 7 42 5 46 -11 4 -14 9 -17 18 -9 13 11 105
10 105 -1 0 -11 -40 -18 -46 -8 -9 15 -36 10 -50 -8 -13 -17 -15 -17 -25 0
-11 19 -39 23 -39 6 0 -6 -8 -8 -17 -5 -12 4 -24 -4 -38 -23 -10 -16 -23 -27
-28 -24 -6 3 1 15 14 25 l24 20 -27 -6 c-23 -5 -26 -3 -24 17 4 34 16 49 32
43 8 -3 14 -1 14 4 0 6 3 10 6 10 3 0 3 -8 -1 -19z m-2730 -21 c6 -10 -42 -23
-55 -15 -5 3 -7 12 -4 19 5 13 50 10 59 -4z m65 10 c8 -5 11 -10 5 -10 -5 0
-17 5 -25 10 -8 5 -10 10 -5 10 6 0 17 -5 25 -10z m420 -5 c0 -8 -4 -15 -10
-15 -5 0 -10 7 -10 15 0 8 5 15 10 15 6 0 10 -7 10 -15z m-84 -17 c-1 -7 -6
-19 -10 -27 -6 -10 -5 -12 2 -7 18 11 14 -6 -7 -31 -24 -28 -27 -28 -41 -2
-12 21 4 54 21 44 4 -3 13 4 19 15 12 23 19 26 16 8z m-706 -9 c0 -5 4 -8 9
-4 11 6 26 -33 17 -42 -3 -3 -13 0 -22 8 -9 7 -28 13 -42 14 -14 0 -27 6 -30
14 -3 10 0 12 12 8 9 -4 16 -2 16 3 0 6 9 10 20 10 11 0 20 -5 20 -11z m2767
-4 c0 -8 -4 -12 -8 -10 -15 10 -41 -8 -36 -25 3 -13 -2 -17 -17 -17 -16 0 -22
6 -24 23 -2 25 13 33 21 12 2 -8 9 -5 18 10 15 25 46 30 46 7z m-2704 -20 c-8
-22 -22 -18 -16 5 3 11 9 17 14 15 4 -3 6 -12 2 -20z m2747 -10 c-12 -15 -73
-18 -64 -4 2 4 13 5 23 2 10 -3 22 0 25 6 4 6 12 11 18 11 7 0 6 -6 -2 -15z
m-2890 -5 c0 -5 -2 -10 -4 -10 -3 0 -8 5 -11 10 -3 6 -1 10 4 10 6 0 11 -4 11
-10z m3360 -5 c-7 -9 -15 -13 -17 -11 -7 7 7 26 19 26 6 0 6 -6 -2 -15z m511
4 c-14 -6 -28 -6 -33 -1 -5 5 5 9 24 10 31 0 31 -1 9 -9z m-3686 -9 c3 -5 1
-10 -4 -10 -6 0 -11 5 -11 10 0 6 2 10 4 10 3 0 8 -4 11 -10z m2826 -24 c-9
-10 -7 -13 9 -12 12 0 25 8 30 16 7 12 12 12 22 2 9 -9 8 -12 -5 -12 -10 0
-17 -6 -16 -12 4 -36 -2 -92 -9 -80 -5 7 -16 10 -25 6 -25 -9 -20 7 8 35 14
13 23 26 20 30 -4 3 -11 -2 -16 -12 -6 -9 -15 -17 -20 -17 -6 0 -7 5 -3 11 3
6 -5 4 -18 -5 -41 -27 -54 8 -16 44 25 23 58 29 39 6z m179 0 c0 -3 -4 -8 -10
-11 -5 -3 -10 -1 -10 4 0 6 5 11 10 11 6 0 10 -2 10 -4z m-328 -31 c3 -14 1
-28 -5 -32 -6 -4 -7 -1 -2 7 5 8 3 11 -6 8 -8 -3 -14 -10 -14 -15 0 -6 -4 -15
-9 -20 -5 -4 -6 -3 -3 4 4 6 1 13 -5 15 -8 3 -4 9 10 17 12 6 22 18 22 26 0
24 7 17 12 -10z m288 0 c-7 -8 -22 -15 -34 -15 -19 0 -18 2 9 20 32 21 45 19
25 -5z m-354 0 c-11 -8 -25 -15 -30 -15 -6 1 0 7 14 15 32 19 40 18 16 0z
m917 -10 c4 -9 -1 -11 -14 -8 -10 3 -19 11 -19 19 0 16 26 8 33 -11z m69 -5
c20 -28 48 -44 32 -18 -5 8 -2 9 10 5 14 -5 17 -3 12 8 -3 9 0 15 8 15 17 0
18 -56 1 -70 -7 -6 -33 -9 -57 -7 -35 3 -39 5 -21 11 21 8 22 10 7 38 -12 23
-18 27 -29 18 -11 -9 -12 -7 -8 9 7 29 19 26 45 -9z m-3427 10 c-3 -5 -1 -10
5 -10 6 0 8 -5 4 -11 -3 -6 0 -15 7 -20 8 -5 9 -9 3 -9 -15 0 -31 21 -28 38 3
20 4 22 10 22 3 0 2 -4 -1 -10z m185 -29 c0 -4 -6 -8 -14 -8 -8 0 -12 6 -9 14
5 13 23 9 23 -6z m2630 -16 c0 -8 -9 -15 -19 -15 -11 0 -22 -6 -24 -12 -4 -10
-6 -10 -6 -1 -1 6 9 19 21 27 28 20 28 20 28 1z m448 -13 c2 -7 -2 -10 -12 -6
-8 3 -23 -1 -32 -11 -9 -9 -19 -14 -22 -11 -7 7 41 46 52 43 6 -2 12 -9 14
-15z m-524 -16 c-21 -15 -30 -14 -19 3 3 6 14 11 23 11 13 0 13 -2 -4 -14z
m-2650 -5 c4 -5 -3 -7 -14 -4 -23 6 -26 13 -6 13 8 0 17 -4 20 -9z m2521 -1
c4 -6 3 -9 -2 -8 -4 1 -18 -2 -31 -6 -32 -11 -41 1 -11 13 32 13 37 13 44 1z
m-225 -30 c0 -5 -5 -10 -11 -10 -5 0 -7 5 -4 10 3 6 8 10 11 10 2 0 4 -4 4
-10z m503 -7 c-18 -6 -16 -23 2 -23 8 0 15 -9 15 -19 0 -11 3 -28 6 -38 3 -10
-1 -7 -9 7 -9 14 -21 25 -29 25 -7 0 -12 9 -10 20 5 25 23 48 31 39 3 -4 0 -9
-6 -11z m-2556 -17 c-1 -6 8 -11 20 -10 25 1 26 -15 2 -31 -63 -39 -82 -46
-93 -34 -8 9 -8 10 4 4 13 -8 13 -7 1 8 -11 14 -11 17 1 17 8 0 20 -6 27 -12
11 -11 12 -10 6 0 -4 9 0 15 13 19 23 6 19 33 -5 33 -8 0 -12 4 -9 8 8 13 35
10 33 -2z m2084 -15 c-10 -18 -15 -19 -37 -9 l-25 12 33 11 c40 14 43 12 29
-14z m269 21 c0 -5 -7 -9 -15 -9 -8 0 -15 4 -15 9 0 4 7 8 15 8 8 0 15 -4 15
-8z m700 -2 c0 -5 -4 -10 -10 -10 -5 0 -10 5 -10 10 0 6 5 10 10 10 6 0 10 -4
10 -10z m50 -22 c0 -5 -7 -8 -15 -8 -15 0 -20 21 -8 33 7 7 23 -11 23 -25z
m-430 -17 c14 -9 36 -18 50 -21 28 -6 41 -40 16 -40 -9 0 -15 5 -13 11 1 6 -4
14 -10 16 -7 3 -13 -3 -13 -12 0 -14 -3 -15 -15 -5 -8 7 -12 16 -10 21 3 4
-16 20 -42 34 -39 20 -42 24 -18 19 17 -4 41 -14 55 -23z m-240 5 c-14 -14
-37 -15 -37 -2 0 6 11 11 23 11 14 0 19 -4 14 -9z m-83 -23 c4 -9 1 -19 -5
-21 -7 -2 -10 -8 -6 -13 3 -5 -6 -9 -20 -9 -13 0 -44 -9 -69 -19 -35 -15 -44
-16 -44 -5 0 15 1 15 33 19 28 3 45 14 43 28 -4 29 3 37 31 37 20 0 33 -6 37
-17z m-2917 -32 c13 -12 13 -13 -2 -8 -10 4 -18 3 -18 -1 0 -4 -15 -7 -32 -7
-18 1 -52 -10 -75 -22 -31 -17 -41 -20 -37 -9 3 9 11 14 17 13 7 -1 11 7 9 18
-2 16 -1 17 7 6 8 -12 12 -12 25 -2 8 7 21 9 27 5 8 -5 9 -3 5 5 -5 8 0 14 13
18 12 3 21 10 21 16 0 6 6 4 13 -3 6 -8 19 -21 27 -29z m3034 24 c-4 -8 -10
-13 -14 -10 -5 3 -16 -2 -24 -11 -9 -8 -16 -11 -16 -5 0 6 12 17 28 25 34 19
32 19 26 1z m464 -26 c3 -8 1 -11 -3 -7 -4 4 -14 0 -21 -10 -11 -14 -13 -14
-14 -2 0 11 -4 10 -16 -5 -11 -14 -18 -16 -21 -7 -3 6 -17 12 -31 12 -26 1
-26 1 -8 15 13 10 24 11 36 5 12 -6 23 -5 36 5 22 17 36 15 42 -6z m-778 -9
c-12 -22 -50 -28 -50 -8 0 9 -3 9 -12 0 -16 -16 -25 -15 -25 4 0 12 7 14 29
10 15 -3 28 -1 28 4 0 6 9 10 20 10 18 0 19 -3 10 -20z m892 8 c15 -12 14 -15
-4 -33 -18 -18 -19 -18 -12 -1 6 16 3 17 -22 12 -16 -3 -36 -2 -44 4 -12 8
-11 10 8 10 12 0 22 5 22 10 0 14 33 12 52 -2z m-3042 -48 c0 -5 -4 -10 -9
-10 -6 0 -13 5 -16 10 -3 6 1 10 9 10 9 0 16 -4 16 -10z m2427 4 c-3 -3 -12
-4 -19 -1 -8 3 -5 6 6 6 11 1 17 -2 13 -5z m683 -14 c0 -5 -2 -10 -4 -10 -3 0
-8 5 -11 10 -3 6 -1 10 4 10 6 0 11 -4 11 -10z m-693 -6 c-3 -3 -12 -4 -19 -1
-8 3 -5 6 6 6 11 1 17 -2 13 -5z m543 -4 c0 -5 -4 -10 -10 -10 -5 0 -10 5 -10
10 0 6 5 10 10 10 6 0 10 -4 10 -10z m-380 -20 c0 -5 -5 -10 -11 -10 -7 0 -17
-7 -24 -17 -8 -11 -14 -12 -19 -5 -4 6 5 18 21 26 34 18 33 18 33 6z m370 0
c13 -9 13 -10 0 -10 -8 0 -22 5 -30 10 -13 9 -13 10 0 10 8 0 22 -5 30 -10z
m144 -5 c15 -16 12 -45 -5 -45 -5 0 -18 9 -29 20 -21 21 -13 28 9 8 11 -11 13
-9 8 10 -6 26 -4 27 17 7z m-3790 -11 c3 -7 -7 -15 -22 -19 -15 -4 -29 -11
-33 -16 -3 -6 -11 -3 -19 6 -11 13 -9 15 9 15 12 0 24 6 27 13 6 17 32 18 38
1z m3079 -6 c3 -10 4 -18 2 -18 -5 0 -75 30 -75 33 0 1 15 2 34 3 26 1 36 -4
39 -18z m-3126 6 c-3 -3 -12 -4 -19 -1 -8 3 -5 6 6 6 11 1 17 -2 13 -5z m800
-10 c-3 -3 -12 -4 -19 -1 -8 3 -5 6 6 6 11 1 17 -2 13 -5z m2413 -9 c-10 -13
-10 -19 4 -34 16 -17 16 -19 0 -25 -12 -5 -15 -2 -10 10 5 13 2 15 -14 11 -11
-3 -20 -1 -20 4 0 5 -8 9 -17 9 -11 0 -4 8 17 19 44 23 56 25 40 6z m-90 -15
c13 -8 13 -10 -2 -10 -10 0 -22 -9 -28 -20 -16 -29 -32 -15 -18 15 12 27 24
30 48 15z m150 -10 c-20 -13 -33 -13 -25 0 3 6 14 10 23 10 15 0 15 -2 2 -10z
m85 -12 c-11 -6 -26 -18 -32 -26 -12 -14 -13 -14 -13 4 0 16 -2 17 -10 4 -8
-13 -10 -13 -10 2 0 17 18 25 60 27 24 0 24 0 5 -11z m378 -11 c4 3 7 2 7 -4
0 -17 -31 -25 -46 -12 -11 9 -14 6 -14 -15 0 -15 -4 -25 -9 -22 -5 4 -11 3
-14 -1 -2 -5 -2 -1 1 7 3 8 4 23 4 33 0 9 6 17 14 17 8 0 14 5 14 12 0 6 7 4
18 -5 10 -10 22 -14 25 -10z m-703 9 c0 -2 -8 -10 -17 -17 -16 -13 -17 -12 -4
4 13 16 21 21 21 13z m377 -16 c1 -11 -2 -20 -8 -20 -5 0 -9 9 -9 20 0 11 4
20 8 20 4 0 8 -9 9 -20z m204 -9 c-10 -10 -21 -25 -23 -32 -3 -8 -9 -11 -13
-7 -11 10 22 58 40 58 12 0 11 -4 -4 -19z m-3401 -15 c-30 -17 -98 -27 -105
-16 -3 4 12 8 32 8 21 0 39 4 40 9 2 5 16 9 31 10 l27 2 -25 -13z m-165 -26
c3 -6 -1 -7 -9 -4 -18 7 -21 14 -7 14 6 0 13 -4 16 -10z m671 -17 c4 -13 11
-23 17 -23 7 0 6 -5 -2 -12 -10 -11 -14 -10 -22 5 -6 9 -15 17 -20 17 -6 0 -8
-4 -4 -9 7 -12 -35 -5 -48 8 -5 5 -4 11 2 15 6 4 11 2 11 -3 0 -6 7 -11 16
-11 10 0 13 6 10 18 -4 13 -1 18 14 18 13 0 23 -9 26 -23z m38 11 c4 -10 1
-14 -6 -12 -15 5 -23 28 -10 28 5 0 13 -7 16 -16z m2971 6 c3 -5 12 -7 20 -3
11 4 13 1 9 -11 -3 -9 -8 -16 -11 -16 -12 0 -43 22 -43 30 0 13 17 13 25 0z
m-3195 -29 c6 -10 12 -10 29 -2 17 10 21 9 21 -4 0 -12 -8 -16 -32 -14 -34 3
-58 15 -58 29 0 13 31 5 40 -9z m255 -1 c-3 -5 -12 -10 -18 -10 -7 0 -6 4 3
10 19 12 23 12 15 0z m2445 2 c0 -4 -9 -13 -20 -20 -17 -10 -20 -10 -20 4 0 8
4 13 9 9 5 -3 12 -1 16 5 7 12 15 13 15 2z m-2915 -12 c3 -6 -1 -7 -9 -4 -9 3
-16 1 -16 -5 0 -6 -7 -8 -16 -4 -13 5 -13 7 -2 14 18 12 35 11 43 -1z m3017
-2 c5 -15 -14 -58 -26 -58 -4 0 -5 10 -1 23 3 12 7 28 7 35 2 15 15 16 20 0z
m111 -13 c19 -8 37 -21 41 -30 5 -14 4 -14 -16 -1 -16 12 -25 13 -35 4 -11 -8
-12 -7 -7 6 4 11 1 16 -10 16 -9 0 -16 -8 -16 -19 0 -11 -4 -22 -9 -26 -15 -9
-23 13 -12 34 8 14 8 21 -2 24 -6 3 -2 6 9 6 12 1 37 -6 57 -14z m-375 -15
c-9 -13 -16 -16 -23 -9 -7 7 -5 13 5 19 24 15 31 11 18 -10z m207 2 c-33 -20
-65 -34 -65 -28 0 8 66 46 80 46 8 0 2 -8 -15 -18z m-3045 4 c0 -2 -7 -7 -16
-10 -8 -3 -12 -2 -9 4 6 10 25 14 25 6z m504 -21 c3 3 2 0 -3 -6 -6 -7 -20 -9
-38 -4 -25 7 -26 8 -8 15 11 4 25 4 31 -1 6 -5 14 -7 18 -4z m-564 -5 c0 -5
-5 -10 -11 -10 -5 0 -7 5 -4 10 3 6 8 10 11 10 2 0 4 -4 4 -10z m3529 -54 c7
-25 9 -26 10 -8 1 25 11 28 29 10 8 -8 12 -9 12 -1 0 26 35 18 48 -11 14 -32
10 -41 -12 -33 -9 4 -13 15 -10 29 l5 23 -11 -23 c-8 -20 -16 -23 -57 -20 -32
2 -47 7 -45 16 1 6 -1 11 -5 11 -36 -6 -43 14 -16 43 20 22 39 10 52 -36z
m-579 -21 c0 -8 -7 -15 -16 -15 -8 0 -12 -4 -9 -10 4 -6 -1 -7 -11 -3 -11 4
-23 -2 -35 -18 l-19 -24 0 23 c0 17 7 24 30 28 16 4 35 13 41 20 15 18 19 18
19 -1z m-3124 -7 c4 -7 4 -10 -1 -6 -4 4 -15 2 -24 -5 -14 -11 -14 -10 -2 6
16 20 18 21 27 5z m214 -12 c0 -9 -30 -14 -35 -6 -4 6 3 10 14 10 12 0 21 -2
21 -4z m2960 -15 c-14 -27 -30 -36 -30 -17 0 8 8 20 18 25 23 14 24 14 12 -8z
m710 9 c0 -5 -5 -10 -11 -10 -5 0 -7 5 -4 10 3 6 8 10 11 10 2 0 4 -4 4 -10z
m-3595 -7 c-11 -2 -35 -8 -52 -13 -18 -5 -33 -6 -33 -4 0 9 46 23 75 22 20 0
23 -2 10 -5z m2650 -12 c7 -12 -12 -24 -25 -16 -11 7 -4 25 10 25 5 0 11 -4
15 -9z m65 -12 c-14 -12 -26 -32 -27 -45 -2 -28 12 -31 26 -6 7 11 10 13 11 3
0 -11 3 -11 15 -1 11 9 15 9 15 1 0 -7 5 -9 11 -5 7 4 7 -2 -1 -17 -18 -35
-24 -38 -17 -9 6 24 5 24 -20 -5 -14 -17 -23 -22 -19 -12 4 13 1 17 -12 15
-29 -5 -29 58 0 82 13 11 28 19 33 19 6 0 -1 -9 -15 -20z m740 4 c0 -13 3 -14
11 -6 16 16 69 4 94 -20 11 -11 14 -16 6 -12 -11 6 -13 4 -8 -8 8 -21 -16 -23
-32 -3 -9 11 -9 15 1 19 8 4 7 6 -4 6 -10 1 -18 -5 -18 -11 -1 -8 -6 -6 -14 5
-8 10 -16 13 -18 7 -2 -7 -12 -6 -30 2 -32 15 -37 38 -8 38 12 0 20 -7 20 -17z
m-530 -23 c0 -5 -4 -10 -10 -10 -5 0 -10 5 -10 10 0 6 5 10 10 10 6 0 10 -4
10 -10z m107 -12 c-3 -8 -6 -5 -6 6 -1 11 2 17 5 13 3 -3 4 -12 1 -19z m-2611
-7 c11 9 14 8 14 -4 0 -12 -8 -16 -29 -14 -24 2 -27 4 -17 20 10 15 11 16 14
2 3 -13 7 -14 18 -4z m2234 5 c0 -2 -8 -10 -17 -17 -16 -13 -17 -12 -4 4 13
16 21 21 21 13z m205 -23 c-19 -13 -31 -11 -21 5 3 5 13 9 22 9 15 0 15 -2 -1
-14z m550 -23 c3 -6 -1 -7 -9 -4 -18 7 -21 14 -7 14 6 0 13 -4 16 -10z m-565
-20 c0 -19 -11 -26 -23 -14 -8 8 3 34 14 34 5 0 9 -9 9 -20z m-264 -17 c-2 -9
-8 -19 -14 -21 -14 -4 -15 0 -6 22 8 21 23 20 20 -1z m414 8 c0 -5 -9 -11 -20
-14 -11 -3 -20 -1 -20 3 0 5 8 11 18 13 9 3 18 5 20 6 1 0 2 -3 2 -8z m500
-33 c0 -6 -6 -5 -15 2 -8 7 -15 14 -15 16 0 2 7 1 15 -2 8 -4 15 -11 15 -16z
m-140 -8 c0 -5 -5 -10 -11 -10 -5 0 -7 5 -4 10 3 6 8 10 11 10 2 0 4 -4 4 -10z
m-593 -32 c-2 -12 -9 -24 -15 -26 -18 -6 -27 29 -11 39 22 14 29 11 26 -13z
m120 -12 c-10 -8 -19 -23 -20 -34 -1 -21 -17 -20 -17 0 0 15 30 48 44 48 6 0
3 -7 -7 -14z m-360 -18 c-3 -8 -6 -5 -6 6 -1 11 2 17 5 13 3 -3 4 -12 1 -19z
m298 12 c-3 -5 -11 -10 -16 -10 -6 0 -7 5 -4 10 3 6 11 10 16 10 6 0 7 -4 4
-10z m355 -6 c0 -24 -19 -54 -35 -54 -20 0 -19 16 3 45 20 28 32 32 32 9z m50
6 c0 -5 -4 -10 -9 -10 -6 0 -13 5 -16 10 -3 6 1 10 9 10 9 0 16 -4 16 -10z
m-240 -14 c0 -8 -7 -17 -16 -20 -8 -3 -12 -2 -9 4 9 14 -8 12 -25 -2 -8 -7 -6
-3 4 10 21 25 46 29 46 8z m647 8 c-3 -3 -12 -4 -19 -1 -8 3 -5 6 6 6 11 1 17
-2 13 -5z m-589 -16 c16 -16 16 -51 0 -45 -7 2 -13 14 -12 26 1 31 -14 26 -19
-6 -4 -26 -4 -26 -6 5 -1 34 15 42 37 20z m280 -6 c2 -7 -3 -12 -12 -12 -9 0
-16 7 -16 16 0 17 22 14 28 -4z m-3213 -1 c-6 -5 -23 -13 -40 -16 -29 -7 -29
-7 -10 8 21 17 66 24 50 8z m3164 -14 c6 -8 8 -17 4 -20 -7 -8 -33 11 -33 24
0 13 16 11 29 -4z m161 3 c0 -5 -4 -10 -10 -10 -5 0 -10 5 -10 10 0 6 5 10 10
10 6 0 10 -4 10 -10z m-2513 -22 c-3 -8 -6 -5 -6 6 -1 11 2 17 5 13 3 -3 4
-12 1 -19z m2468 12 c3 -5 1 -10 -4 -10 -6 0 -11 5 -11 10 0 6 2 10 4 10 3 0
8 -4 11 -10z m-3255 -18 c0 -5 -7 -9 -15 -9 -8 0 -15 4 -15 9 0 4 7 8 15 8 8
0 15 -4 15 -8z m-80 -11 c0 -5 -9 -11 -20 -14 -11 -3 -20 -1 -20 3 0 5 8 11
18 13 9 3 18 5 20 6 1 0 2 -3 2 -8z m2541 -8 c13 -16 12 -17 -3 -4 -22 17 -23
8 -2 -13 14 -15 13 -16 -8 -14 -36 4 -50 20 -30 36 21 16 27 15 43 -5z m-1661
-24 c0 -5 -4 -9 -10 -9 -5 0 -10 7 -10 16 0 8 5 12 10 9 6 -3 10 -10 10 -16z
m2486 13 c-3 -5 6 -16 20 -26 30 -23 31 -40 2 -30 -29 8 -28 7 -34 38 -2 15 0
26 6 26 6 0 9 -4 6 -8z m-592 -11 c3 -5 0 -11 -8 -14 -8 -3 -17 1 -20 9 -6 15
19 20 28 5z m460 -17 c9 -36 -1 -43 -14 -10 -12 33 -12 36 -1 36 5 0 12 -12
15 -26z m-750 9 c-5 -5 -12 -12 -16 -18 -4 -6 -8 -2 -8 8 0 9 7 17 17 17 9 0
12 -3 7 -7z m514 -17 c-7 -8 -15 -12 -17 -11 -5 6 10 25 20 25 5 0 4 -6 -3
-14z m-438 -16 c0 -5 -5 -10 -11 -10 -5 0 -7 5 -4 10 3 6 8 10 11 10 2 0 4 -4
4 -10z m230 0 c0 -5 -5 -10 -11 -10 -5 0 -7 5 -4 10 3 6 8 10 11 10 2 0 4 -4
4 -10z m-321 -9 c12 -8 12 -12 -2 -26 -10 -9 -17 -13 -17 -9 0 3 -8 0 -17 -7
-16 -13 -17 -12 -5 2 7 9 12 21 11 25 -4 25 6 30 30 15z m746 -42 c-4 -5 -13
-9 -21 -9 -12 0 -12 2 -2 14 14 15 32 11 23 -5z m-3209 -1 c4 4 3 0 -4 -9 -6
-9 -9 -19 -5 -22 3 -4 -5 -7 -18 -8 -13 0 -18 -3 -11 -6 17 -7 5 -23 -19 -23
-10 0 -19 -5 -19 -11 0 -5 -4 -8 -9 -4 -12 7 -43 -24 -35 -36 4 -6 10 -6 18 0
6 5 18 6 25 2 8 -6 2 -11 -21 -16 -22 -5 -27 -9 -15 -12 9 -2 17 -12 18 -21 0
-14 2 -13 9 3 9 20 9 20 9 0 1 -12 -9 -25 -21 -30 -13 -6 -22 -16 -21 -23 2
-7 -7 -12 -19 -12 -21 0 -21 0 -2 16 17 14 17 15 1 10 -10 -3 -15 -2 -12 3 3
5 1 12 -5 16 -5 3 -10 1 -10 -5 0 -6 -5 -8 -11 -5 -6 5 -4 12 8 21 24 18 2 18
-33 -1 -38 -19 -74 -19 -74 0 0 8 -5 15 -11 15 -5 0 -7 5 -3 11 4 7 10 7 16 1
5 -5 18 -7 29 -5 15 4 17 9 8 25 -9 16 -8 19 3 15 7 -2 12 -10 11 -16 -5 -20
19 -12 39 15 20 25 39 26 22 1 -8 -11 8 6 36 40 5 6 18 17 27 23 13 8 14 13 5
16 -6 3 -9 10 -6 16 4 6 10 5 15 -3 8 -11 11 -11 20 4 9 15 13 16 27 5 14 -11
15 -10 9 6 -6 15 -5 17 6 8 8 -7 18 -8 23 -4z m2614 2 c-8 -5 -19 -10 -25 -10
-5 0 -3 5 5 10 8 5 20 10 25 10 6 0 3 -5 -5 -10z m-2580 -16 c0 -8 -5 -12 -10
-9 -6 4 -8 11 -5 16 9 14 15 11 15 -7z m2731 -11 c-12 -20 -14 -14 -5 12 4 9
9 14 11 11 3 -2 0 -13 -6 -23z m-2941 7 c0 -5 -4 -10 -9 -10 -6 0 -13 5 -16
10 -3 6 1 10 9 10 9 0 16 -4 16 -10z m3285 -19 c-7 -25 -25 -28 -25 -5 0 8 5
12 10 9 6 -3 10 2 10 11 0 10 3 15 6 11 3 -3 3 -15 -1 -26z m145 15 c0 -3 -4
-8 -10 -11 -5 -3 -10 -1 -10 4 0 6 5 11 10 11 6 0 10 -2 10 -4z m-3120 -27
c-7 -11 -14 -18 -17 -15 -3 3 0 12 7 21 18 21 23 19 10 -6z m2607 5 c-3 -3
-12 -4 -19 -1 -8 3 -5 6 6 6 11 1 17 -2 13 -5z m246 -13 c-3 -11 -11 -17 -18
-14 -17 6 -8 33 10 33 8 0 11 -8 8 -19z m382 1 c-3 -3 -11 0 -18 7 -9 10 -8
11 6 5 10 -3 15 -9 12 -12z m-830 -4 c4 -3 -14 -8 -39 -9 -44 -4 -51 5 -11 13
25 5 43 4 50 -4z m144 8 c-2 -2 -17 -6 -34 -10 -22 -5 -26 -4 -15 4 14 9 59
15 49 6z m105 -8 c-5 -7 -2 -9 8 -6 12 5 14 0 10 -20 l-5 -27 29 30 28 30 6
-25 c6 -24 7 -24 14 -3 9 28 28 34 46 15 13 -14 12 -15 -4 -9 -14 6 -17 4 -12
-8 3 -8 9 -22 12 -30 3 -8 2 -15 -4 -15 -6 0 -13 6 -15 13 -4 7 -6 6 -6 -5 -1
-9 5 -19 12 -21 6 -3 1 -6 -13 -6 -15 -1 -31 4 -38 11 -8 8 -12 8 -12 1 0 -14
-68 0 -84 18 -8 9 -8 10 2 5 7 -5 13 0 14 11 0 10 2 23 3 28 2 6 3 13 4 18 0
4 4 7 7 7 3 0 2 -5 -2 -12z m-2784 -2 c0 -3 -4 -8 -10 -11 -5 -3 -10 -1 -10 4
0 6 5 11 10 11 6 0 10 -2 10 -4z m74 -7 c-2 -4 4 -10 13 -12 13 -3 12 -5 -5
-6 -13 0 -20 -5 -17 -11 3 -5 2 -10 -3 -10 -12 0 -24 29 -17 39 2 4 11 8 19 8
8 0 13 -4 10 -8z m3121 -7 c-5 -12 -3 -13 10 -2 21 18 44 -2 27 -23 -7 -8 -9
-27 -6 -46 7 -36 -5 -40 -31 -10 -24 25 -30 96 -9 96 9 0 13 -6 9 -15z m281 3
c4 -8 11 -12 18 -8 6 3 2 -3 -9 -14 -13 -14 -22 -16 -27 -9 -5 7 -8 5 -8 -6 0
-9 6 -19 13 -22 6 -3 2 -3 -9 -1 -13 4 -24 0 -27 -9 -4 -10 1 -13 16 -10 16 3
15 1 -5 -8 -16 -7 -28 -16 -28 -21 0 -4 -10 -5 -21 -2 -14 5 -25 2 -30 -6 -7
-11 -9 -10 -9 4 0 10 8 17 19 17 30 0 35 19 7 26 -15 3 -27 15 -31 31 -7 30 2
44 15 23 8 -13 10 -12 10 3 0 15 3 15 21 5 18 -11 23 -10 33 5 13 21 45 22 52
2z m-3451 -26 c-4 -5 -13 -9 -21 -9 -17 0 -18 -12 -2 -28 8 -8 8 -15 -1 -26
-6 -7 -11 -18 -10 -22 4 -23 -3 -34 -18 -33 -11 0 -13 3 -5 6 18 7 4 23 -16
17 -14 -5 -15 -4 -2 5 13 9 12 11 -5 11 -16 0 -17 2 -5 10 9 6 17 5 21 -2 5
-8 12 -6 24 5 17 18 11 42 -7 31 -7 -5 -9 -1 -5 9 3 9 3 18 -1 20 -4 2 -1 2 5
1 7 -2 19 3 25 10 14 15 32 11 23 -5z m145 -11 c10 -3 8 -6 -8 -10 -14 -4 -20
-2 -15 5 4 6 0 8 -10 4 -11 -4 -17 -1 -17 9 0 11 5 12 18 6 9 -5 24 -11 32
-14z m2394 12 c-31 -13 -57 -52 -41 -62 9 -6 9 -8 0 -8 -6 0 -15 -10 -18 -21
-5 -16 -9 -18 -15 -9 -12 20 -28 3 -23 -24 4 -21 2 -24 -17 -19 -20 5 -21 3
-16 -18 6 -21 5 -21 -4 -6 -19 30 -7 60 32 80 24 13 34 25 31 34 -5 12 -7 12
-14 1 -5 -7 -9 -11 -10 -8 0 3 -2 13 -4 23 -2 12 1 17 10 13 7 -2 21 3 31 13
10 9 32 18 49 19 26 1 27 0 9 -8z m413 -12 c-3 -8 -6 -5 -6 6 -1 11 2 17 5 13
3 -3 4 -12 1 -19z m-3023 -4 c3 -8 2 -12 -4 -9 -6 3 -10 10 -10 16 0 14 7 11
14 -7z m150 -10 c-7 -3 -11 -13 -9 -22 1 -9 0 -11 -2 -4 -4 11 -7 11 -20 0
-15 -12 -15 -11 -4 10 6 12 19 22 29 21 9 0 12 -3 6 -5z m-64 -24 c0 -5 -2
-10 -4 -10 -3 0 -8 5 -11 10 -3 6 -1 10 4 10 6 0 11 -4 11 -10z m-10 -24 c0
-3 -4 -8 -10 -11 -5 -3 -10 -1 -10 4 0 6 5 11 10 11 6 0 10 -2 10 -4z m805 -6
c3 -5 1 -10 -4 -10 -6 0 -11 5 -11 10 0 6 2 10 4 10 3 0 8 -4 11 -10z m-1025
-41 c13 -9 13 -10 -2 -6 -9 3 -18 1 -21 -6 -2 -6 -6 -4 -10 6 -7 19 10 23 33
6z m191 -60 c-13 -10 -28 -19 -35 -19 -6 1 1 8 17 16 15 8 27 20 27 26 0 6 3
8 8 4 4 -4 -4 -16 -17 -27z m2493 7 c-6 -16 -24 -23 -24 -8 0 10 22 33 27 28
2 -2 1 -11 -3 -20z m-59 -24 c-3 -3 -11 0 -18 7 -9 10 -8 11 6 5 10 -3 15 -9
12 -12z m22 -4 c-3 -8 -6 -5 -6 6 -1 11 2 17 5 13 3 -3 4 -12 1 -19z m623 18
c0 -3 -4 -8 -10 -11 -5 -3 -10 -1 -10 4 0 6 5 11 10 11 6 0 10 -2 10 -4z
m-3390 -31 c0 -8 -51 -55 -60 -55 -21 0 -15 15 13 35 32 24 47 29 47 20z m270
-16 c-10 -7 -11 -12 -4 -15 9 -4 8 -13 -3 -34 -16 -33 -20 -35 -43 -20 -12 8
-10 10 10 11 23 0 22 1 -7 12 -39 14 -39 32 0 32 15 0 27 5 27 12 0 6 6 13 13
16 19 7 23 -3 7 -14z m2600 2 c0 -10 -7 -18 -15 -18 -8 0 -12 4 -9 9 3 4 -4 8
-15 8 -12 0 -21 -5 -21 -12 0 -6 -3 -9 -6 -5 -14 14 5 32 35 34 24 2 31 -2 31
-16z m-1715 -24 c-5 -16 -4 -18 3 -8 7 9 11 4 14 -20 l5 -33 -18 23 c-20 25
-27 77 -9 66 6 -4 8 -16 5 -28z m66 -3 c-5 -16 -10 -21 -10 -12 -1 18 10 51
15 45 2 -1 -1 -16 -5 -33z m1415 19 c21 -49 13 -79 -18 -74 -5 0 -8 -8 -8 -20
0 -12 -5 -19 -12 -17 -15 5 -24 48 -10 48 5 0 7 11 4 25 -9 48 26 78 44 38z
m-2541 -2 c-3 -5 2 -16 10 -24 19 -19 19 -28 1 -21 -15 6 -28 39 -18 48 9 9
14 7 7 -3z m232 3 c-3 -3 -12 -4 -19 -1 -8 3 -5 6 6 6 11 1 17 -2 13 -5z m926
-21 c-3 -26 -3 -27 6 -5 6 12 16 22 22 22 9 0 9 -3 0 -14 -9 -11 -6 -12 14 -8
25 4 25 3 13 -24 -15 -37 -26 -49 -34 -41 -4 4 -1 13 6 22 14 17 8 31 -9 20
-6 -3 -11 -17 -11 -31 0 -13 -4 -24 -10 -24 -12 0 -24 63 -15 89 9 30 23 26
18 -6z m-57 -31 c-12 -11 -18 7 -10 30 l8 23 4 -23 c2 -13 1 -26 -2 -30z
m1571 30 c-9 -2 -15 -7 -12 -11 2 -5 -3 -17 -11 -27 -9 -10 -13 -14 -10 -7 4
6 2 14 -3 18 -16 9 20 44 38 37 14 -6 14 -7 -2 -10z m-2222 -2 c3 -5 -1 -10
-9 -10 -9 0 -16 5 -16 10 0 6 4 10 9 10 6 0 13 -4 16 -10z m2400 -10 c8 -13
-15 -13 -35 0 -12 8 -11 10 7 10 12 0 25 -4 28 -10z m-2602 -16 c-3 -9 -9 -12
-12 -7 -3 4 -10 11 -15 16 -5 4 0 7 12 7 15 0 20 -4 15 -16z m-263 -4 c0 -5
-2 -10 -4 -10 -3 0 -8 5 -11 10 -3 6 -1 10 4 10 6 0 11 -4 11 -10z m375 0 c-3
-5 -10 -10 -16 -10 -5 0 -9 5 -9 10 0 6 7 10 16 10 8 0 12 -4 9 -10z m2545 6
c0 -2 -8 -10 -17 -17 -16 -13 -17 -12 -4 4 13 16 21 21 21 13z m-50 -20 c-1
-5 4 -13 12 -18 8 -5 4 -7 -14 -4 -15 2 -28 0 -30 -5 -2 -6 -12 -7 -22 -3 -23
9 -2 24 34 24 20 0 22 2 10 11 -10 7 -11 9 -2 7 8 -2 13 -7 12 -12z m200 -1
c0 -1 -8 -9 -17 -16 -11 -10 -14 -10 -9 -1 4 7 2 12 -4 12 -6 0 -9 4 -5 10 5
8 35 4 35 -5z m-2630 -49 c0 -6 -4 -5 -9 3 -6 10 -13 10 -28 2 -23 -12 -34 -6
-26 14 2 8 12 11 20 8 12 -5 14 -3 8 8 -5 8 1 5 13 -5 12 -11 22 -24 22 -30z
m30 40 c0 -3 -4 -8 -10 -11 -5 -3 -10 -1 -10 4 0 6 5 11 10 11 6 0 10 -2 10
-4z m676 -33 c-3 -3 -18 -2 -33 2 -24 7 -25 9 -8 13 11 2 25 8 30 14 10 10 22
-19 11 -29z m-891 7 c3 -5 1 -10 -4 -10 -6 0 -11 5 -11 10 0 6 2 10 4 10 3 0
8 -4 11 -10z m245 -5 c0 -2 -9 -3 -19 -2 -11 0 -18 5 -15 9 4 6 34 0 34 -7z
m2580 -5 c0 -5 -4 -10 -9 -10 -6 0 -13 5 -16 10 -3 6 1 10 9 10 9 0 16 -4 16
-10z"/>
<path d="M2932 1898 c-17 -17 -15 -38 4 -38 12 0 15 6 11 21 -4 16 -3 18 9 8
11 -9 14 -8 14 5 0 19 -21 21 -38 4z"/>
<path d="M3180 1685 c0 -8 5 -15 10 -15 6 0 10 7 10 15 0 8 -4 15 -10 15 -5 0
-10 -7 -10 -15z"/>
<path d="M3077 1363 c-7 -6 3 -33 12 -33 3 0 11 8 17 18 10 15 8 18 -6 19 -10
1 -20 -1 -23 -4z"/>
<path d="M167 323 c-12 -12 -7 -22 8 -17 8 4 15 10 15 15 0 11 -14 12 -23 2z"/>
<path d="M253 312 c0 -19 17 -33 29 -26 13 8 9 18 -10 31 -15 9 -19 8 -19 -5z"/>
<path d="M308 123 c7 -3 16 -2 19 1 4 3 -2 6 -13 5 -11 0 -14 -3 -6 -6z"/>
<path d="M2685 3538 c3 -13 7 -38 8 -56 2 -29 3 -30 15 -15 7 10 11 26 9 35
-3 9 0 19 5 20 6 2 -1 12 -16 21 -26 18 -27 18 -21 -5z"/>
<path d="M2740 3539 c0 -5 5 -7 10 -4 6 3 10 8 10 11 0 2 -4 4 -10 4 -5 0 -10
-5 -10 -11z"/>
<path d="M2406 3514 c-4 -9 -4 -19 -1 -22 2 -3 7 3 11 12 4 9 4 19 1 22 -2 3
-7 -3 -11 -12z"/>
<path d="M2941 3514 c-15 -18 -14 -19 17 -28 12 -4 22 -3 22 3 0 5 3 16 6 25
8 21 -26 21 -45 0z"/>
<path d="M3531 3511 c-9 -16 -7 -20 14 -23 27 -6 35 9 10 18 -8 4 -12 10 -9
15 3 5 3 9 0 9 -3 0 -10 -8 -15 -19z"/>
<path d="M2786 3480 c-16 -17 -26 -34 -22 -37 3 -3 1 -12 -4 -18 -19 -23 17
-25 37 -2 16 18 33 87 21 87 -2 0 -16 -14 -32 -30z"/>
<path d="M3720 3496 c0 -8 -8 -20 -17 -25 -10 -6 -13 -11 -7 -11 18 0 47 37
35 45 -6 3 -11 -1 -11 -9z"/>
<path d="M3906 3495 c-3 -8 -2 -15 3 -15 5 0 14 7 21 15 10 12 10 15 -3 15 -8
0 -17 -7 -21 -15z"/>
<path d="M3580 3485 c0 -8 7 -15 15 -15 8 0 15 7 15 15 0 8 -7 15 -15 15 -8 0
-15 -7 -15 -15z"/>
<path d="M3985 3490 c-3 -5 -1 -10 4 -10 6 0 11 5 11 10 0 6 -2 10 -4 10 -3 0
-8 -4 -11 -10z"/>
<path d="M2543 3482 c-13 -2 -23 -8 -23 -14 0 -5 7 -8 15 -4 21 8 19 -11 -2
-23 -16 -9 -16 -10 -2 -11 20 0 42 24 37 42 -2 7 -13 12 -25 10z"/>
<path d="M3860 3475 c0 -8 5 -15 10 -15 6 0 10 7 10 15 0 8 -4 15 -10 15 -5 0
-10 -7 -10 -15z"/>
<path d="M3032 3450 c-25 -22 -28 -29 -16 -34 23 -9 26 -7 18 7 -5 8 -2 8 9
-2 11 -9 17 -10 17 -2 0 6 7 11 15 11 18 0 19 9 1 32 -12 16 -15 15 -44 -12z"/>
<path d="M3940 3469 c0 -5 -8 -9 -18 -7 -17 3 -93 -46 -100 -64 -2 -4 -11 -8
-19 -8 -9 0 -13 -3 -10 -7 4 -3 1 -13 -6 -21 -10 -14 -9 -15 8 -8 38 16 65 19
65 7 0 -6 -7 -14 -15 -17 -19 -8 -20 -24 0 -24 7 0 19 8 24 18 6 9 11 13 11 7
0 -5 5 -3 10 5 6 9 10 11 10 3 0 -7 7 -10 15 -7 8 4 15 1 15 -5 0 -6 -15 -14
-32 -19 -28 -8 -30 -11 -14 -17 12 -5 31 -2 52 10 39 21 45 52 14 80 -26 24
-27 59 -1 50 21 -6 51 3 51 17 0 5 -4 7 -9 3 -5 -3 -12 -1 -16 5 -8 13 -35 13
-35 -1z"/>
<path d="M3800 3459 c0 -5 5 -7 10 -4 6 3 10 8 10 11 0 2 -4 4 -10 4 -5 0 -10
-5 -10 -11z"/>
<path d="M3715 3450 c-3 -5 -2 -10 4 -10 5 0 13 5 16 10 3 6 2 10 -4 10 -5 0
-13 -4 -16 -10z"/>
<path d="M2365 3439 c-10 -15 3 -25 16 -12 7 7 7 13 1 17 -6 3 -14 1 -17 -5z"/>
<path d="M2955 3419 c6 -18 4 -20 -14 -14 -16 5 -23 1 -30 -17 -5 -13 -16 -30
-24 -36 -13 -11 -15 -10 -10 9 l6 22 -26 -19 c-27 -20 -34 -34 -17 -34 5 0 7
-6 4 -14 -3 -8 0 -17 5 -21 6 -3 9 -11 5 -16 -9 -16 -24 0 -24 27 0 26 -7 29
-29 15 -12 -7 -12 -13 -3 -24 7 -7 8 -18 4 -22 -4 -5 -1 -5 6 -1 9 5 15 1 19
-12 7 -29 28 -34 49 -11 16 18 16 19 1 13 -9 -3 -17 -2 -17 4 0 6 6 13 13 15
10 4 10 6 0 6 -7 1 -13 8 -13 16 0 8 6 12 14 9 8 -3 17 -1 21 5 10 17 28 13
21 -4 -3 -9 0 -15 10 -15 12 0 15 6 11 21 -6 20 22 59 43 59 6 0 10 7 10 15 0
8 -4 15 -10 15 -5 0 -10 7 -10 15 0 8 -5 15 -11 15 -6 0 -8 -9 -4 -21z"/>
<path d="M3170 3430 c0 -5 4 -10 9 -10 6 0 13 5 16 10 3 6 -1 10 -9 10 -9 0
-16 -4 -16 -10z"/>
<path d="M3980 3420 c0 -5 5 -10 10 -10 6 0 10 5 10 10 0 6 -4 10 -10 10 -5 0
-10 -4 -10 -10z"/>
<path d="M3065 3395 c-27 -17 -34 -24 -21 -25 17 0 86 36 86 46 0 11 -29 2
-65 -21z"/>
<path d="M2571 3381 c-8 -6 -9 -11 -3 -15 6 -3 14 -1 17 5 9 14 2 20 -14 10z"/>
<path d="M2360 3355 c-7 -9 -8 -15 0 -20 5 -3 10 0 10 7 0 11 2 10 9 0 7 -11
9 -11 14 1 8 20 -18 30 -33 12z"/>
<path d="M2970 3350 c0 -5 5 -10 10 -10 6 0 10 5 10 10 0 6 -4 10 -10 10 -5 0
-10 -4 -10 -10z"/>
<path d="M2239 3336 c9 -11 8 -15 -6 -21 -10 -5 -27 -7 -38 -6 -20 3 -20 2 -1
-12 10 -8 16 -19 12 -25 -4 -7 -2 -12 3 -12 6 0 16 9 23 20 14 22 38 27 38 9
0 -8 5 -8 15 1 27 22 16 47 -17 41 -5 0 -8 4 -8 9 0 6 -7 10 -16 10 -13 0 -14
-3 -5 -14z"/>
<path d="M2952 3290 c-12 -32 -1 -83 23 -108 10 -11 17 -9 37 10 32 29 46 78
23 78 -9 0 -26 -5 -37 -11 -19 -10 -20 -9 -14 14 3 15 1 29 -8 36 -11 9 -16 6
-24 -19z m14 -37 c-10 -10 -19 5 -10 18 6 11 8 11 12 0 2 -7 1 -15 -2 -18z"/>
<path d="M3106 3257 c3 -8 11 -14 19 -14 20 0 19 13 -1 21 -22 8 -24 8 -18 -7z"/>
<path d="M2175 3240 c-3 -5 -1 -10 4 -10 6 0 11 5 11 10 0 6 -2 10 -4 10 -3 0
-8 -4 -11 -10z"/>
<path d="M2900 3229 c0 -6 -6 -17 -14 -24 -7 -8 -17 -34 -20 -60 -9 -55 -21
-58 -34 -7 -6 23 -10 29 -11 16 -1 -16 -7 -22 -25 -20 -22 1 -26 26 -4 26 5 0
6 5 3 10 -9 14 -25 12 -22 -2 1 -7 -3 -12 -10 -11 -7 2 -10 -3 -7 -11 7 -19
-16 -32 -27 -15 -8 12 -11 12 -19 -1 -5 -8 -10 -19 -10 -25 0 -5 4 -4 9 4 8
12 12 12 25 2 9 -8 16 -9 16 -4 0 6 11 8 24 6 22 -5 24 -8 15 -30 -5 -13 -9
-43 -9 -66 0 -23 -8 -51 -17 -62 -13 -16 -15 -17 -10 -2 4 9 3 17 -2 17 -5 0
-12 -21 -16 -47 -4 -27 -11 -53 -15 -58 -13 -16 -7 -105 8 -114 22 -14 66 0
96 31 26 26 28 32 17 50 -9 15 -9 23 0 34 9 11 8 14 -5 14 -11 0 -16 9 -16 30
0 17 5 30 11 30 6 0 9 7 5 15 -3 8 0 15 6 15 6 0 8 3 5 7 -4 3 1 11 9 18 15
11 15 14 -1 39 -13 19 -15 30 -7 38 7 7 12 4 17 -11 8 -27 25 -27 32 -1 3 11
13 20 22 20 10 0 27 10 39 23 l22 24 -20 18 c-13 11 -18 25 -14 37 3 10 1 18
-5 18 -5 0 -13 9 -16 20 -7 21 -25 28 -25 9z"/>
<path d="M3063 3233 c-7 -2 -13 -9 -13 -14 0 -6 -11 -22 -25 -37 -24 -26 -31
-42 -19 -42 9 0 34 28 34 38 0 5 14 21 32 36 29 23 24 33 -9 19z"/>
<path d="M2706 3222 c-3 -6 -1 -14 5 -17 15 -10 25 3 12 16 -7 7 -13 7 -17 1z"/>
<path d="M3730 3210 c-19 -15 -21 -20 -9 -20 16 0 46 27 38 35 -2 2 -15 -5
-29 -15z"/>
<path d="M2605 3210 c-3 -5 -1 -10 4 -10 6 0 11 5 11 10 0 6 -2 10 -4 10 -3 0
-8 -4 -11 -10z"/>
<path d="M2106 3203 c-10 -10 -7 -25 4 -18 6 3 10 -3 10 -13 0 -15 5 -19 20
-15 14 4 20 0 20 -11 0 -9 -5 -16 -12 -16 -6 0 -9 -3 -5 -6 3 -3 15 -3 26 1
23 7 28 37 9 52 -23 16 -66 32 -72 26z"/>
<path d="M3545 3189 c-10 -15 1 -23 20 -15 9 3 13 10 10 16 -8 13 -22 13 -30
-1z"/>
<path d="M2480 3175 c0 -8 2 -15 4 -15 2 0 6 7 10 15 3 8 1 15 -4 15 -6 0 -10
-7 -10 -15z"/>
<path d="M2677 3183 c-12 -11 -8 -23 8 -23 8 0 15 7 15 15 0 16 -12 20 -23 8z"/>
<path d="M2060 3171 c0 -6 5 -13 12 -17 6 -4 8 -3 4 4 -3 5 0 13 6 15 8 3 6 6
-4 6 -10 1 -18 -3 -18 -8z"/>
<path d="M2247 3163 c-10 -9 -8 -55 2 -72 7 -10 13 -11 27 -2 11 6 13 11 7 11
-7 0 -13 10 -13 23 0 26 -14 50 -23 40z"/>
<path d="M3650 3161 c0 -10 26 -9 36 2 4 4 -2 7 -14 7 -12 0 -22 -4 -22 -9z"/>
<path d="M2030 3131 c-15 -29 -13 -31 24 -31 22 0 36 6 40 16 5 14 4 15 -9 4
-12 -10 -15 -9 -16 6 0 11 -3 14 -6 7 -2 -7 -9 -13 -14 -13 -4 0 -6 7 -3 15 9
22 -3 18 -16 -4z"/>
<path d="M2116 3125 c-3 -8 -1 -15 4 -15 6 0 10 7 10 15 0 8 -2 15 -4 15 -2 0
-6 -7 -10 -15z"/>
<path d="M2650 3106 c0 -13 -7 -26 -15 -30 -8 -3 -15 -11 -15 -19 0 -11 13
-16 58 -19 9 -1 8 -6 -3 -18 -19 -21 -19 -40 -2 -40 8 0 19 -10 26 -22 11 -23
11 -23 5 2 -4 14 -11 27 -16 28 -5 2 -4 10 3 18 6 8 8 21 4 31 -5 10 -7 26 -6
37 2 12 -1 16 -10 11 -9 -6 -10 -1 -5 19 5 19 3 26 -9 26 -9 0 -15 -9 -15 -24z"/>
<path d="M1690 3041 c0 -6 -6 -8 -14 -5 -7 3 -16 -2 -20 -11 -8 -23 15 -28 48
-11 28 14 28 14 7 25 -13 8 -21 8 -21 2z"/>
<path d="M2625 3022 c-15 -11 -18 -42 -4 -42 7 0 5 -8 -6 -20 -10 -11 -15 -23
-11 -27 9 -9 25 17 43 65 12 32 3 43 -22 24z"/>
<path d="M3125 3011 c-3 -5 -1 -12 5 -16 5 -3 10 1 10 9 0 18 -6 21 -15 7z"/>
<path d="M1503 2985 c-19 -25 -24 -27 -32 -15 -6 8 -13 11 -17 7 -14 -14 -14
-45 1 -57 9 -7 15 -8 15 -2 0 14 36 22 48 10 14 -14 19 2 12 47 l-5 40 -22
-30z"/>
<path d="M2037 2996 c-3 -8 -2 -18 3 -21 13 -8 24 15 12 27 -6 6 -11 4 -15 -6z"/>
<path d="M3155 2980 c3 -5 1 -10 -5 -10 -6 0 -8 -5 -5 -10 4 -6 11 -8 16 -5
12 8 11 35 -2 35 -5 0 -7 -4 -4 -10z"/>
<path d="M1574 2966 c-8 -22 3 -33 18 -18 9 9 9 15 0 24 -9 9 -13 7 -18 -6z"/>
<path d="M1821 2934 c8 -10 8 -14 0 -14 -6 0 -11 -5 -11 -10 0 -6 8 -5 20 2
25 16 25 24 -1 31 -16 4 -18 3 -8 -9z"/>
<path d="M2320 2946 c0 -2 7 -7 16 -10 8 -3 12 -2 9 4 -6 10 -25 14 -25 6z"/>
<path d="M2507 2933 c-4 -3 -7 -11 -7 -17 0 -6 5 -5 12 2 6 6 9 14 7 17 -3 3
-9 2 -12 -2z"/>
<path d="M2640 2930 c0 -5 5 -10 11 -10 5 0 7 5 4 10 -3 6 -8 10 -11 10 -2 0
-4 -4 -4 -10z"/>
<path d="M58 2903 c-3 -23 -1 -33 8 -33 8 0 11 -9 9 -20 -2 -11 0 -18 6 -15
12 8 11 34 -5 70 l-13 30 -5 -32z"/>
<path d="M2670 2915 c-38 -38 -60 -54 -60 -45 0 17 -20 11 -28 -7 -4 -10 -15
-18 -24 -18 -10 0 -18 -4 -18 -10 0 -5 4 -10 9 -10 18 0 25 -16 11 -25 -13 -8
-12 -10 3 -10 9 0 17 5 17 10 0 6 5 10 12 10 6 0 4 -8 -7 -20 -12 -13 -15 -27
-11 -45 4 -17 3 -24 -4 -20 -5 3 -10 2 -10 -4 0 -19 18 -21 36 -4 9 9 23 18
31 19 20 3 26 11 19 22 -3 6 -16 8 -29 5 -21 -6 -21 -5 4 15 25 20 51 24 65 9
15 -15 21 -6 18 25 -2 17 -9 35 -15 39 -8 5 -7 15 4 37 20 41 6 57 -23 27z
m-10 -51 c0 -8 -4 -12 -10 -9 -5 3 -10 10 -10 16 0 5 5 9 10 9 6 0 10 -7 10
-16z m3 -38 c4 -10 1 -13 -8 -9 -8 3 -12 9 -9 14 7 12 11 11 17 -5z"/>
<path d="M1437 2893 c-4 -3 -7 -11 -7 -17 0 -6 5 -5 12 2 6 6 9 14 7 17 -3 3
-9 2 -12 -2z"/>
<path d="M2330 2866 c0 -2 7 -7 16 -10 8 -3 12 -2 9 4 -6 10 -25 14 -25 6z"/>
<path d="M1515 2850 c3 -5 13 -10 21 -10 8 0 12 5 9 10 -3 6 -13 10 -21 10 -8
0 -12 -4 -9 -10z"/>
<path d="M2462 2840 c-7 -11 -8 -20 -3 -20 9 0 24 30 18 36 -1 2 -8 -6 -15
-16z"/>
<path d="M1780 2839 c0 -5 5 -7 10 -4 6 3 10 8 10 11 0 2 -4 4 -10 4 -5 0 -10
-5 -10 -11z"/>
<path d="M2370 2841 c0 -5 5 -13 10 -16 6 -3 10 -2 10 4 0 5 -4 13 -10 16 -5
3 -10 2 -10 -4z"/>
<path d="M1823 2826 c0 -7 9 -13 19 -13 11 -1 18 3 16 9 -5 15 -35 19 -35 4z"/>
<path d="M1160 2784 c-13 -34 -2 -59 26 -59 23 0 22 35 -1 68 -14 20 -14 20
-25 -9z"/>
<path d="M2926 2792 c-4 -7 -16 -12 -26 -12 -13 0 -18 -7 -17 -20 1 -11 6 -20
12 -20 15 0 47 39 42 53 -2 8 -5 8 -11 -1z"/>
<path d="M1870 2779 c0 -5 5 -7 10 -4 6 3 10 8 10 11 0 2 -4 4 -10 4 -5 0 -10
-5 -10 -11z"/>
<path d="M2538 2766 c-18 -18 -25 -66 -10 -66 13 0 34 45 30 65 -3 18 -4 18
-20 1z"/>
<path d="M56 2761 c-3 -5 1 -12 10 -15 20 -8 29 -1 19 13 -8 13 -22 14 -29 2z"/>
<path d="M1064 2752 c-5 -16 -12 -22 -25 -19 -11 3 -19 -2 -23 -17 -4 -15 -8
-18 -14 -8 -7 10 -12 8 -26 -7 -23 -25 -3 -38 31 -20 18 10 31 10 52 2 18 -6
35 -7 45 -1 20 11 21 28 0 28 -8 0 -13 3 -10 8 2 4 -2 18 -10 32 l-14 25 -6
-23z m11 -42 c-3 -5 -12 -10 -18 -10 -7 0 -6 4 3 10 19 12 23 12 15 0z"/>
<path d="M75 2720 c3 -5 13 -10 21 -10 8 0 12 5 9 10 -3 6 -13 10 -21 10 -8 0
-12 -4 -9 -10z"/>
<path d="M2785 2714 c-17 -13 -18 -16 -5 -24 13 -8 12 -10 -2 -10 -12 0 -15
-5 -11 -16 3 -9 0 -20 -7 -24 -18 -11 -42 -84 -30 -88 17 -6 11 -30 -7 -28
-11 1 -19 -10 -24 -34 -7 -32 -6 -33 7 -15 8 11 12 26 9 33 -4 10 0 12 11 8
19 -7 34 9 66 74 13 25 31 51 41 58 9 7 17 23 17 35 -1 19 -3 18 -14 -8 -12
-29 -13 -29 -20 -7 -4 12 -4 31 -1 42 8 24 -2 25 -30 4z"/>
<path d="M2460 2706 c0 -8 -3 -23 -7 -33 -6 -17 -5 -17 15 1 25 22 29 46 7 46
-8 0 -15 -6 -15 -14z"/>
<path d="M2562 2682 c11 -13 11 -15 -4 -9 -21 8 -24 -19 -5 -44 9 -12 17 -13
33 -4 17 9 19 13 8 23 -7 7 -11 18 -8 26 3 8 -3 16 -16 19 -18 5 -19 3 -8 -11z"/>
<path d="M833 2665 c-7 -8 -13 -21 -13 -30 0 -8 -3 -15 -7 -15 -5 0 -9 -14 -9
-31 -1 -17 -7 -34 -13 -39 -7 -4 -12 -13 -11 -21 1 -8 2 -23 1 -33 -1 -16 -4
-17 -13 -8 -10 10 -10 15 2 22 9 6 10 10 3 10 -6 0 -15 9 -18 20 -9 29 -23 16
-36 -33 -10 -35 -13 -38 -19 -22 -7 19 -7 19 -15 -5 -9 -29 -29 -50 -47 -50
-10 0 -9 -3 2 -10 8 -5 17 -5 20 0 3 4 26 11 52 15 45 7 46 6 41 -15 -5 -19
-2 -22 23 -20 16 1 34 1 39 0 29 -7 42 -3 65 18 25 23 60 30 60 12 0 -5 6 -10
14 -10 8 0 17 -8 19 -17 4 -16 5 -16 6 1 1 11 6 16 15 13 8 -3 17 1 20 9 3 8
12 14 21 14 17 0 20 16 4 26 -6 3 -9 15 -6 25 5 17 -8 25 -35 20 -5 0 -8 4 -8
9 0 6 7 10 15 10 27 0 16 27 -14 33 -26 6 -29 10 -25 36 3 16 0 32 -6 36 -6 4
-10 -5 -10 -24 0 -27 -3 -29 -27 -25 -15 3 -30 7 -35 10 -4 3 -4 -6 2 -20 10
-28 7 -30 -25 -16 -11 5 -15 9 -8 9 12 1 12 18 -1 39 -5 9 -1 15 14 19 22 6
22 7 4 20 -10 8 -18 17 -16 21 7 13 -13 11 -25 -3z"/>
<path d="M940 2660 c0 -5 7 -10 15 -10 8 0 15 5 15 10 0 6 -7 10 -15 10 -8 0
-15 -4 -15 -10z"/>
<path d="M1380 2661 c0 -6 5 -13 10 -16 6 -3 10 1 10 9 0 9 -4 16 -10 16 -5 0
-10 -4 -10 -9z"/>
<path d="M1282 2624 c-11 -12 -5 -14 39 -14 55 0 64 8 13 12 -16 1 -31 5 -34
9 -3 4 -11 1 -18 -7z"/>
<path d="M1230 2626 c0 -2 7 -7 16 -10 8 -3 12 -2 9 4 -6 10 -25 14 -25 6z"/>
<path d="M980 2600 c0 -5 5 -10 11 -10 5 0 7 5 4 10 -3 6 -8 10 -11 10 -2 0
-4 -4 -4 -10z"/>
<path d="M1110 2576 c0 -2 7 -6 15 -10 8 -3 15 -1 15 4 0 6 -7 10 -15 10 -8 0
-15 -2 -15 -4z"/>
<path d="M1510 2570 c0 -5 5 -10 11 -10 5 0 7 5 4 10 -3 6 -8 10 -11 10 -2 0
-4 -4 -4 -10z"/>
<path d="M12 2550 c13 -20 28 -27 28 -12 0 10 -22 32 -32 32 -5 0 -3 -9 4 -20z"/>
<path d="M1050 2556 c0 -8 -5 -16 -12 -18 -15 -5 -1 -28 18 -28 8 0 14 7 14
15 0 8 5 15 10 15 6 0 10 -4 10 -10 0 -5 5 -10 10 -10 6 0 10 7 10 15 0 8 -4
16 -10 16 -20 3 -25 4 -37 12 -8 5 -13 3 -13 -7z"/>
<path d="M1215 2561 c-4 -7 -2 -18 5 -26 9 -10 7 -14 -7 -18 -15 -4 -14 -5 3
-6 12 0 27 -8 34 -16 13 -16 35 -10 24 6 -3 5 9 14 26 21 39 13 27 28 -26 30
-21 1 -42 5 -45 11 -4 5 -9 5 -14 -2z"/>
<path d="M2615 2560 c3 -5 8 -10 11 -10 2 0 4 5 4 10 0 6 -5 10 -11 10 -5 0
-7 -4 -4 -10z"/>
<path d="M2580 2524 c0 -8 5 -12 10 -9 6 3 10 10 10 16 0 5 -4 9 -10 9 -5 0
-10 -7 -10 -16z"/>
<path d="M1130 2512 c0 -11 11 -24 25 -30 21 -10 23 -9 18 6 -15 41 -43 56
-43 24z"/>
<path d="M651 2494 c0 -11 3 -14 6 -6 3 7 2 16 -1 19 -3 4 -6 -2 -5 -13z"/>
<path d="M580 2485 c0 -8 7 -15 15 -15 8 0 15 7 15 15 0 8 -7 15 -15 15 -8 0
-15 -7 -15 -15z"/>
<path d="M2560 2490 c0 -5 5 -10 10 -10 6 0 10 5 10 10 0 6 -4 10 -10 10 -5 0
-10 -4 -10 -10z"/>
<path d="M2608 2455 c-2 -19 0 -35 4 -35 4 0 8 16 8 35 0 19 -2 35 -4 35 -2 0
-6 -16 -8 -35z"/>
<path d="M524 2456 c-9 -23 7 -38 26 -26 13 8 13 11 -2 26 -16 17 -18 17 -24
0z"/>
<path d="M1181 2444 c0 -11 3 -14 6 -6 3 7 2 16 -1 19 -3 4 -6 -2 -5 -13z"/>
<path d="M1260 2439 c0 -5 5 -7 10 -4 6 3 10 8 10 11 0 2 -4 4 -10 4 -5 0 -10
-5 -10 -11z"/>
<path d="M598 2403 c3 -15 10 -23 20 -21 25 5 24 22 -1 34 -22 10 -23 8 -19
-13z"/>
<path d="M1330 2421 c0 -6 5 -13 10 -16 6 -3 10 1 10 9 0 9 -4 16 -10 16 -5 0
-10 -4 -10 -9z"/>
<path d="M1195 2410 c-4 -6 3 -10 14 -10 25 0 27 6 6 13 -8 4 -17 2 -20 -3z"/>
<path d="M515 2360 c-9 -16 -20 -30 -25 -30 -6 0 -10 -4 -10 -10 0 -11 27 -2
59 22 15 10 21 23 18 32 -10 24 -25 19 -42 -14z"/>
<path d="M750 2369 c-7 -11 -9 -23 -5 -27 3 -3 -5 -12 -17 -19 -18 -9 -19 -12
-6 -13 9 0 20 5 23 10 3 6 15 10 26 10 20 0 41 37 31 55 -3 5 -7 4 -10 -3 -2
-7 -10 -12 -18 -12 -9 0 -12 5 -9 10 3 6 4 10 1 10 -3 0 -10 -9 -16 -21z"/>
<path d="M1135 2370 c3 -5 8 -10 11 -10 2 0 4 5 4 10 0 6 -5 10 -11 10 -5 0
-7 -4 -4 -10z"/>
<path d="M1368 2373 c7 -3 16 -2 19 1 4 3 -2 6 -13 5 -11 0 -14 -3 -6 -6z"/>
<path d="M230 2351 c0 -5 -3 -16 -6 -25 -4 -10 -1 -16 9 -16 9 0 15 10 15 25
0 14 -4 25 -9 25 -5 0 -9 -4 -9 -9z"/>
<path d="M1037 2323 c-4 -3 -7 -12 -7 -20 0 -20 28 -15 40 7 9 17 8 20 -8 20
-10 0 -22 -3 -25 -7z"/>
<path d="M577 2300 c-15 -18 -15 -20 2 -32 18 -14 22 -53 7 -77 -6 -10 -3 -18
8 -27 16 -12 16 -13 -1 -17 -10 -3 -3 -5 15 -4 30 1 47 16 20 18 -7 0 2 7 20
15 34 15 41 34 18 53 -11 10 -16 8 -24 -5 -9 -15 -11 -15 -18 7 -4 13 -7 33
-5 45 3 33 -22 47 -42 24z"/>
<path d="M512 2279 c2 -7 10 -15 17 -17 8 -3 12 1 9 9 -2 7 -10 15 -17 17 -8
3 -12 -1 -9 -9z"/>
<path d="M925 2270 c-3 -5 1 -10 9 -10 9 0 16 5 16 10 0 6 -4 10 -9 10 -6 0
-13 -4 -16 -10z"/>
<path d="M1215 2271 c-11 -10 -4 -20 10 -15 8 4 15 1 15 -5 0 -9 5 -9 21 -1
11 7 18 14 15 18 -7 7 -55 10 -61 3z"/>
<path d="M1026 2242 c-10 -16 1 -32 22 -32 11 0 13 3 6 8 -6 4 -13 14 -16 22
-3 10 -6 11 -12 2z"/>
<path d="M1113 2242 c-12 -9 -26 -45 -14 -37 30 18 50 -37 28 -72 -5 -8 -4
-13 2 -13 6 0 11 5 11 12 0 9 3 9 11 1 12 -12 49 -6 49 8 0 5 7 9 15 9 12 0
11 6 -5 33 -20 34 -79 70 -97 59z"/>
<path d="M1391 2224 c0 -11 3 -14 6 -6 3 7 2 16 -1 19 -3 4 -6 -2 -5 -13z"/>
<path d="M947 2215 c-8 -20 -4 -29 11 -24 5 2 6 13 2 23 -6 19 -7 19 -13 1z"/>
<path d="M991 2214 c0 -11 3 -14 6 -6 3 7 2 16 -1 19 -3 4 -6 -2 -5 -13z"/>
<path d="M523 2191 c-10 -15 -9 -20 2 -25 27 -10 46 4 34 25 -12 24 -21 24
-36 0z"/>
<path d="M734 2153 c2 -10 6 -17 10 -16 15 3 16 11 2 22 -12 10 -14 9 -12 -6z"/>
<path d="M950 2145 c0 -8 8 -15 18 -14 10 0 12 3 4 6 -6 2 -10 9 -6 14 3 5 0
9 -5 9 -6 0 -11 -7 -11 -15z"/>
<path d="M635 2120 c3 -5 11 -10 16 -10 6 0 7 5 4 10 -3 6 -11 10 -16 10 -6 0
-7 -4 -4 -10z"/>
<path d="M580 2111 c0 -5 9 -7 20 -4 11 3 20 7 20 9 0 2 -9 4 -20 4 -11 0 -20
-4 -20 -9z"/>
<path d="M670 2080 c-13 -8 -12 -10 3 -10 9 0 17 5 17 10 0 12 -1 12 -20 0z"/>
<path d="M1315 2080 c3 -5 8 -10 11 -10 2 0 4 5 4 10 0 6 -5 10 -11 10 -5 0
-7 -4 -4 -10z"/>
<path d="M2646 2075 c-3 -8 -1 -15 4 -15 6 0 10 7 10 15 0 8 -2 15 -4 15 -2 0
-6 -7 -10 -15z"/>
<path d="M1213 2055 c-30 -35 -12 -40 43 -12 26 13 43 27 37 30 -5 3 -21 0
-36 -8 -22 -11 -25 -11 -20 1 7 20 1 17 -24 -11z"/>
<path d="M2570 2071 c0 -5 5 -13 10 -16 6 -3 10 -2 10 4 0 5 -4 13 -10 16 -5
3 -10 2 -10 -4z"/>
<path d="M630 2050 c0 -5 5 -10 10 -10 6 0 10 5 10 10 0 6 -4 10 -10 10 -5 0
-10 -4 -10 -10z"/>
<path d="M615 2000 c-3 -5 1 -10 9 -10 9 0 16 5 16 10 0 6 -4 10 -9 10 -6 0
-13 -4 -16 -10z"/>
<path d="M1150 2003 c-31 -10 -60 -27 -60 -35 0 -8 21 -7 30 2 3 3 21 13 40
22 32 15 25 23 -10 11z"/>
<path d="M1330 1995 c-10 -12 -10 -15 4 -15 9 0 16 7 16 15 0 8 -2 15 -4 15
-2 0 -9 -7 -16 -15z"/>
<path d="M603 1963 c-14 -5 -18 -43 -5 -43 4 0 15 12 25 25 18 25 11 31 -20
18z"/>
<path d="M720 1960 c0 -5 5 -10 11 -10 5 0 7 5 4 10 -3 6 -8 10 -11 10 -2 0
-4 -4 -4 -10z"/>
<path d="M2650 1936 c0 -2 7 -7 16 -10 8 -3 12 -2 9 4 -6 10 -25 14 -25 6z"/>
<path d="M1159 1928 c-7 -13 -3 -55 4 -51 5 3 8 0 5 -8 -2 -8 -20 -19 -38 -25
-38 -13 -50 -31 -26 -40 9 -3 13 -10 10 -15 -3 -5 -3 -9 -1 -9 12 0 92 32 151
60 66 32 83 50 47 50 -11 0 -27 7 -35 15 -12 13 -20 14 -36 5 -11 -6 -17 -16
-14 -22 5 -7 12 -5 21 7 7 11 13 15 13 9 0 -5 -7 -17 -14 -26 -12 -16 -15 -15
-41 17 -23 30 -41 42 -46 33z m21 -18 c0 -5 -5 -10 -11 -10 -5 0 -7 5 -4 10 3
6 8 10 11 10 2 0 4 -4 4 -10z"/>
<path d="M1297 1909 c7 -7 15 -10 18 -7 3 3 -2 9 -12 12 -14 6 -15 5 -6 -5z"/>
<path d="M1125 1870 c-3 -5 -1 -10 4 -10 6 0 11 5 11 10 0 6 -2 10 -4 10 -3 0
-8 -4 -11 -10z"/>
<path d="M1084 1855 c-10 -8 -14 -15 -8 -15 6 0 17 7 24 15 16 19 9 19 -16 0z"/>
<path d="M1290 1789 c0 -5 5 -7 10 -4 6 3 10 8 10 11 0 2 -4 4 -10 4 -5 0 -10
-5 -10 -11z"/>
<path d="M570 1775 c0 -9 6 -12 15 -9 8 4 12 10 9 15 -8 14 -24 10 -24 -6z"/>
<path d="M1200 1769 c0 -5 5 -7 10 -4 6 3 10 8 10 11 0 2 -4 4 -10 4 -5 0 -10
-5 -10 -11z"/>
<path d="M1180 1720 c-13 -8 -12 -10 3 -10 9 0 17 5 17 10 0 12 -1 12 -20 0z"/>
<path d="M2449 1379 c18 -11 36 -17 40 -14 9 10 -30 35 -53 35 -17 0 -14 -4
13 -21z"/>
<path d="M2820 1238 c0 -4 6 -8 14 -8 8 0 17 4 20 8 2 4 -4 8 -15 8 -10 0 -19
-4 -19 -8z"/>
<path d="M1195 1160 c6 -40 19 -57 30 -38 5 7 4 9 -1 5 -4 -4 -14 9 -21 30
l-13 38 5 -35z"/>
<path d="M2572 1130 c0 -14 2 -19 5 -12 2 6 2 18 0 25 -3 6 -5 1 -5 -13z"/>
<path d="M2618 1128 c-10 -10 -15 -18 -10 -18 4 0 2 -4 -3 -8 -13 -9 -38 -82
-31 -89 3 -3 8 3 11 13 4 10 18 41 32 67 27 53 28 64 1 35z"/>
<path d="M1218 1073 c5 -21 7 -23 10 -9 2 10 0 22 -6 28 -6 6 -7 0 -4 -19z"/>
<path d="M2975 1090 c-3 -5 0 -10 8 -10 8 0 17 -7 21 -15 8 -23 -4 -45 -21
-38 -11 4 -14 2 -9 -5 5 -8 0 -12 -13 -12 -11 0 -19 6 -18 13 2 6 -1 2 -7 -10
-5 -13 -13 -23 -18 -23 -4 0 -8 -5 -8 -11 0 -6 6 -9 14 -6 8 3 17 3 20 0 12
-12 56 -12 53 0 -1 7 7 12 19 11 19 0 20 3 11 45 -12 56 -37 86 -52 61z"/>
<path d="M2540 1045 c0 -8 4 -15 10 -15 5 0 7 7 4 15 -4 8 -8 15 -10 15 -2 0
-4 -7 -4 -15z"/>
<path d="M2570 977 c-11 -8 -14 -22 -10 -41 5 -29 5 -29 16 12 6 23 11 42 10
42 -1 0 -8 -6 -16 -13z"/>
<path d="M2900 950 c0 -5 5 -10 10 -10 6 0 10 5 10 10 0 6 -4 10 -10 10 -5 0
-10 -4 -10 -10z"/>
<path d="M2560 800 c0 -5 5 -10 11 -10 5 0 7 5 4 10 -3 6 -8 10 -11 10 -2 0
-4 -4 -4 -10z"/>
<path d="M2558 773 c7 -3 16 -2 19 1 4 3 -2 6 -13 5 -11 0 -14 -3 -6 -6z"/>
<path d="M1468 633 c6 -2 18 -2 25 0 6 3 1 5 -13 5 -14 0 -19 -2 -12 -5z"/>
<path d="M3981 415 c2 -11 0 -26 -4 -32 -5 -9 -3 -13 8 -13 11 0 15 7 12 25
-1 13 -7 28 -11 32 -4 4 -7 -1 -5 -12z"/>
<path d="M122 224 c3 -17 21 -21 26 -6 1 5 -4 12 -13 16 -11 4 -15 1 -13 -10z"/>
<path d="M94 223 c4 -7 2 -13 -3 -13 -6 0 -11 -4 -11 -10 0 -5 6 -10 14 -10
15 0 16 24 1 37 -4 4 -5 2 -1 -4z"/>
<path d="M3677 193 c-13 -12 -7 -32 18 -58 13 -15 30 -25 37 -23 8 3 1 16 -20
36 -18 18 -30 37 -27 42 7 11 2 13 -8 3z"/>
<path d="M3583 176 c3 -6 9 -10 15 -9 8 2 9 -5 3 -20 -8 -21 -7 -23 20 -19 23
3 27 8 20 21 -5 9 -7 21 -4 27 2 6 -9 11 -27 11 -18 0 -29 -5 -27 -11z"/>
<path d="M3666 128 c3 -5 10 -6 15 -3 13 9 11 12 -6 12 -8 0 -12 -4 -9 -9z"/>
<path d="M3626 94 c-8 -21 -8 -21 8 -21 8 0 17 9 19 19 6 22 -18 25 -27 2z"/>
<path d="M3663 85 c-3 -9 -3 -18 -1 -21 9 -9 38 8 38 22 0 19 -29 18 -37 -1z"/>
<path d="M3770 81 c0 -6 -7 -11 -15 -11 -8 0 -15 -7 -15 -15 0 -8 5 -15 10
-15 6 0 10 -6 10 -12 0 -7 13 -13 30 -14 32 -1 37 5 18 24 -9 9 -8 12 6 12 9
0 14 5 11 10 -4 7 -13 7 -25 0 -16 -8 -18 -7 -14 4 3 8 1 17 -5 21 -6 3 -11 1
-11 -4z"/>
<path d="M3692 32 c-1 -24 0 -25 9 -9 7 11 7 23 2 28 -5 5 -9 -3 -11 -19z"/>
<path d="M3500 30 c0 -5 4 -10 9 -10 6 0 13 5 16 10 3 6 -1 10 -9 10 -9 0 -16
-4 -16 -10z"/>
<path d="M3720 31 c0 -5 5 -13 10 -16 6 -3 10 -2 10 4 0 5 -4 13 -10 16 -5 3
-10 2 -10 -4z"/>
<path d="M3850 31 c0 -12 29 -35 36 -28 4 3 -1 13 -9 22 -17 17 -27 19 -27 6z"/>
<path d="M355 10 c-3 -5 1 -10 9 -10 9 0 16 5 16 10 0 6 -4 10 -9 10 -6 0 -13
-4 -16 -10z"/>
<path d="M2995 10 c3 -5 8 -10 11 -10 2 0 4 5 4 10 0 6 -5 10 -11 10 -5 0 -7
-4 -4 -10z"/>
</g>
</svg>
